<svg width="562" height="426" viewBox="0 0 562 426" fill="none" xmlns="http://www.w3.org/2000/svg">
<g clip-path="url(#clip0)">
<rect width="562" height="426" fill="#FEFEFE"/>
<path d="M552.472 369.581C550.11 350.931 538.339 332.556 520.225 326.486C527.369 345.682 527.367 366.741 520.221 385.936C517.437 393.329 513.558 401.267 516.176 408.718C517.805 413.354 521.79 416.901 526.244 419.119C530.699 421.337 535.643 422.394 540.525 423.43L541.486 424.211C549.236 407.027 554.834 388.231 552.472 369.581Z" fill="#FF304F"/>
<path d="M520.045 326.839C530.594 338.445 537.151 353.019 538.783 368.492C539.195 371.817 539.07 375.185 538.414 378.472C537.669 381.653 536.071 384.581 533.784 386.95C531.697 389.202 529.297 391.267 527.804 393.978C527.06 395.376 526.626 396.913 526.53 398.488C526.434 400.063 526.679 401.639 527.247 403.115C528.565 406.828 531.163 409.854 533.809 412.727C536.747 415.917 539.849 419.184 541.098 423.413C541.249 423.925 542.05 423.664 541.899 423.153C539.727 415.796 532.453 411.617 528.985 404.99C527.366 401.898 526.687 398.309 528.204 395.045C529.531 392.191 532.004 390.058 534.137 387.797C536.403 385.517 538.065 382.728 538.979 379.672C539.804 376.429 540.06 373.071 539.738 369.743C539.133 362.24 537.331 354.877 534.397 347.923C531.093 339.968 526.428 332.627 520.604 326.218C520.243 325.821 519.687 326.445 520.045 326.839H520.045Z" fill="white"/>
<path d="M538.556 363.48C541.163 362.858 543.46 361.347 545.037 359.216C546.613 357.086 547.367 354.474 547.164 351.848C547.121 351.316 546.279 351.357 546.322 351.889C546.515 354.334 545.813 356.767 544.34 358.748C542.868 360.729 540.723 362.129 538.292 362.693C537.764 362.816 538.031 363.602 538.556 363.48Z" fill="white"/>
<path d="M534.995 385.946C530.287 383.185 526.812 378.784 525.262 373.62C525.109 373.108 524.308 373.368 524.461 373.879C526.084 379.251 529.71 383.824 534.616 386.685C535.084 386.958 535.46 386.216 534.995 385.946Z" fill="white"/>
<path d="M530.311 340.753C529.353 341.2 528.298 341.406 527.239 341.353C526.18 341.301 525.151 340.99 524.245 340.451C523.781 340.173 523.404 340.914 523.865 341.19C524.87 341.782 526.007 342.123 527.176 342.184C528.346 342.245 529.513 342.024 530.575 341.54C530.68 341.502 530.765 341.427 530.815 341.33C530.865 341.233 530.875 341.121 530.844 341.016C530.808 340.912 530.732 340.826 530.633 340.777C530.533 340.728 530.417 340.719 530.311 340.753Z" fill="white"/>
<path d="M465.011 359.797C465.296 359.979 465.581 360.161 465.866 360.35C469.681 362.813 473.285 365.576 476.644 368.613C476.908 368.844 477.171 369.081 477.428 369.319C485.441 376.719 491.985 385.516 496.728 395.262C498.612 399.141 500.193 403.156 501.456 407.272C503.2 412.955 504.631 419.254 508.084 423.903C508.439 424.392 508.824 424.859 509.238 425.301H540.442C540.513 425.266 540.585 425.238 540.656 425.203L541.902 425.259C541.852 425.042 541.795 424.819 541.745 424.602C541.716 424.476 541.681 424.35 541.653 424.224C541.631 424.14 541.61 424.057 541.595 423.98C541.589 423.952 541.581 423.924 541.574 423.903C541.56 423.826 541.538 423.756 541.524 423.686C541.211 422.435 540.888 421.183 540.556 419.932C540.556 419.925 540.556 419.925 540.549 419.918C537.993 410.39 534.604 400.987 529.87 392.388C529.727 392.13 529.585 391.864 529.428 391.605C527.272 387.741 524.798 384.056 522.031 380.588C520.51 378.694 518.891 376.876 517.183 375.142C512.759 370.671 507.646 366.91 502.033 363.999C490.841 358.197 477.883 355.974 465.922 359.518C465.616 359.609 465.317 359.7 465.011 359.797Z" fill="#FF304F"/>
<path d="M465.081 360.186C480.62 363.217 494.791 370.978 505.582 382.367C507.95 384.778 509.915 387.541 511.407 390.553C512.763 393.533 513.281 396.816 512.908 400.06C512.622 403.091 511.973 406.16 512.442 409.206C512.706 410.763 513.302 412.246 514.191 413.56C515.08 414.874 516.242 415.989 517.6 416.831C520.929 419.016 524.86 419.897 528.734 420.626C533.035 421.436 537.516 422.211 541.105 424.849C541.54 425.169 542.02 424.487 541.586 424.168C535.34 419.578 526.97 420.541 520.138 417.301C516.95 415.789 514.206 413.325 513.416 409.822C512.726 406.758 513.393 403.594 513.709 400.527C514.12 397.368 513.737 394.158 512.594 391.177C511.264 388.1 509.41 385.268 507.112 382.801C502.028 377.168 496.074 372.354 489.468 368.536C481.953 364.138 473.727 361.035 465.146 359.36C464.615 359.257 464.553 360.084 465.081 360.186H465.081Z" fill="white"/>
<path d="M502.328 378.499C504.028 376.462 504.935 373.897 504.888 371.264C504.84 368.631 503.841 366.099 502.068 364.123C501.708 363.724 501.06 364.254 501.421 364.654C503.075 366.492 504.006 368.849 504.045 371.302C504.084 373.754 503.229 376.139 501.634 378.027C501.288 378.438 501.984 378.907 502.328 378.499Z" fill="white"/>
<path d="M513.259 398.542C507.808 399.121 502.334 397.662 497.93 394.454C497.494 394.136 497.014 394.817 497.45 395.135C502.039 398.464 507.739 399.972 513.41 399.357C513.951 399.298 513.797 398.483 513.259 398.542Z" fill="white"/>
<path d="M481.809 365.227C481.319 366.15 480.602 366.939 479.725 367.523C478.847 368.106 477.835 368.467 476.78 368.572C476.239 368.624 476.394 369.439 476.931 369.387C478.096 369.266 479.213 368.866 480.184 368.223C481.155 367.58 481.951 366.714 482.503 365.699C482.563 365.608 482.585 365.497 482.566 365.39C482.546 365.283 482.485 365.187 482.396 365.123C482.304 365.061 482.191 365.037 482.081 365.056C481.971 365.076 481.873 365.138 481.809 365.227Z" fill="white"/>
<path d="M312.335 22.7908C311.583 23.7121 311.045 24.7841 310.761 25.9313C310.476 27.0785 310.451 28.2731 310.687 29.4308C310.924 30.5886 311.416 31.6814 312.129 32.6323C312.842 33.5831 313.758 34.3689 314.814 34.9343L310.004 63.2457L323.888 57.1953L326.327 31.238C327.177 29.4335 327.323 27.3857 326.738 25.4825C326.153 23.5793 324.877 21.9531 323.152 20.9118C321.427 19.8706 319.374 19.4868 317.38 19.8331C315.386 20.1794 313.591 21.2318 312.335 22.7908Z" fill="#E1B7BD"/>
<path d="M437.242 414.47L425.889 414.469L420.488 371.472L437.244 371.473L437.242 414.47Z" fill="#E1B7BD"/>
<path d="M440.137 425.276L403.531 425.275V424.82C403.531 421.11 405.032 417.551 407.704 414.928C410.376 412.304 414 410.83 417.779 410.83H417.78L440.138 410.831L440.137 425.276Z" fill="#2F2E41"/>
<path d="M361.063 414.47L349.71 414.469L344.309 371.472L361.065 371.473L361.063 414.47Z" fill="#E1B7BD"/>
<path d="M363.958 425.276L327.352 425.275V424.82C327.352 421.11 328.854 417.551 331.526 414.928C334.198 412.304 337.822 410.83 341.6 410.83H341.601L363.959 410.831L363.958 425.276Z" fill="#2F2E41"/>
<path d="M356.331 213.831L352.087 219.311C352.087 219.311 351.703 221.87 345.267 242.72L341.736 399.435H363.094L391.644 274.045L421.274 401.951L439.789 403.023L438.918 257.644C438.918 257.644 441.257 227.736 432.967 222.181C424.678 216.627 356.331 213.831 356.331 213.831Z" fill="#2F2E41"/>
<path d="M384.974 82.1368C397.352 82.1368 407.386 72.2838 407.386 60.1295C407.386 47.9752 397.352 38.1223 384.974 38.1223C372.595 38.1223 362.561 47.9752 362.561 60.1295C362.561 72.2838 372.595 82.1368 384.974 82.1368Z" fill="#E1B7BD"/>
<path d="M407.521 63.575L407.151 62.8483C406.579 61.7242 401.84 52.3795 401.245 49.9768L395.28 50.6656L379.749 50.668L381.907 47.4894L376.201 48.2202C374.116 48.4691 372.121 49.2072 370.387 50.3721C369.323 51.0661 368.424 51.9767 367.75 53.0421C365.712 56.4692 362.598 62.0748 362.566 62.1311L362.269 62.6674L359.681 58.3934C359.647 58.2275 356.44 41.8036 367.173 36.2336C367.726 35.1296 372.443 26.4465 383.591 27.0326C384.816 25.6609 386.542 24.8183 388.396 24.6872C390.942 24.5568 393.584 25.8699 396.238 28.6065C399.763 32.2412 404.592 37.2187 407.512 42.7454L408.317 43.8739C409.462 45.4889 410.029 47.431 409.929 49.3962C410.549 52.5324 410.329 55.7732 409.289 58.8006L407.521 63.575Z" fill="#2F2E41"/>
<path d="M402.051 86.2777L414.453 93.0083L438.814 99.7061L431.542 162.305L432.865 223.967C432.865 223.967 391.629 251.705 352.087 219.311V141.696L354.426 99.7061C354.426 99.7061 363.889 97.0667 368.653 101.62L377.689 90.0941L402.051 86.2777Z" fill="#FF304F"/>
<path d="M359.89 105.474L354.426 99.7064L324.315 96.3571L327.141 50.9458L310.724 39.446L298.663 103.377L354.379 141.696L359.89 105.474Z" fill="#FF304F"/>
<path d="M420.928 244.344C420.703 243.184 420.741 241.99 421.037 240.845C421.333 239.701 421.882 238.634 422.643 237.72C423.405 236.807 424.361 236.068 425.445 235.556C426.529 235.045 427.714 234.773 428.916 234.759L438.187 207.538L447.561 219.275L437.32 243.325C437.209 245.31 436.36 247.186 434.935 248.598C433.509 250.009 431.606 250.858 429.585 250.984C427.564 251.109 425.567 250.503 423.972 249.279C422.376 248.055 421.293 246.299 420.928 244.344Z" fill="#E1B7BD"/>
<path d="M429.662 106.872L438.814 99.7061C438.814 99.7061 448.172 104.775 451.02 113.863C453.868 122.951 458.851 174.682 458.851 174.682L445.324 241.094L430.197 230.793L437.493 178.178L424.678 139.728L429.662 106.872Z" fill="#FF304F"/>
<path d="M314.927 0H84.1116V55.0747H314.927V0Z" fill="#28C7FA"/>
<path d="M90.1678 49.1279H308.871V5.94684H90.1678V49.1279Z" fill="white"/>
<path d="M131.824 43.9883C141.077 43.9883 148.578 36.623 148.578 27.5374C148.578 18.4519 141.077 11.0865 131.824 11.0865C122.571 11.0865 115.07 18.4519 115.07 27.5374C115.07 36.623 122.571 43.9883 131.824 43.9883Z" fill="#FF304F"/>
<path d="M283.969 21.1001H171.887V24.6764H283.969V21.1001Z" fill="#28C7FA"/>
<path d="M283.969 30.3984H171.887V33.9747H283.969V30.3984Z" fill="#28C7FA"/>
<path d="M0 83.7086L195.298 97.6962V148.047L0 144.486V83.7086Z" fill="#28C7FA"/>
<path d="M6.1521 138.071L191.034 142.511V102.852L6.1521 90.6761V138.071Z" fill="white"/>
<path d="M46.73 98.7873C48.8645 98.9225 50.9431 99.5135 52.821 100.519C54.7044 101.53 56.3753 102.883 57.7447 104.506C59.1678 106.185 60.2825 108.094 61.0389 110.149C61.8369 112.31 62.2441 114.592 62.2422 116.891C62.2506 119.155 61.8429 121.403 61.0389 123.525C60.2931 125.496 59.1755 127.311 57.7447 128.875C56.3708 130.378 54.6942 131.585 52.821 132.42C50.9084 133.263 48.8255 133.668 46.73 133.604C44.5854 133.537 42.4822 133.006 40.5703 132.05C38.6338 131.077 36.9079 129.745 35.4884 128.127C33.999 126.435 32.8298 124.496 32.0359 122.4C31.1935 120.186 30.7629 117.842 30.7648 115.479C30.7554 113.151 31.1865 110.842 32.0359 108.669C32.8196 106.662 33.9924 104.823 35.4892 103.254C36.9149 101.76 38.6469 100.579 40.5712 99.7888C42.5194 98.9977 44.6261 98.6551 46.73 98.7873Z" fill="#FF304F"/>
<path d="M83.1042 111.246L173.087 115.85V119.197L83.1042 114.904V111.246Z" fill="#28C7FA"/>
<path d="M83.1042 120.758L173.087 124.551V127.897L83.1042 124.416V120.758Z" fill="#28C7FA"/>
<path d="M0 185.992L195.298 182.432V232.783L0 246.77V185.992Z" fill="#28C7FA"/>
<path d="M6.1521 239.802L191.034 227.626V187.971L6.1521 192.411V239.802Z" fill="white"/>
<path d="M30.7782 214.197C30.873 211.836 31.3997 209.51 32.3332 207.332C33.2097 205.28 34.4558 203.399 36.0117 201.781C37.4926 200.234 39.2681 198.988 41.2377 198.114C43.1857 197.252 45.3042 196.827 47.4401 196.869C49.5362 196.911 51.5951 197.42 53.4615 198.358C55.2968 199.288 56.9179 200.578 58.2245 202.148C59.5872 203.784 60.6274 205.655 61.2918 207.665C62.0072 209.825 62.3229 212.093 62.2238 214.362C62.134 216.659 61.6358 218.923 60.7517 221.051C59.9155 223.069 58.7251 224.927 57.2347 226.54C55.8033 228.097 54.0806 229.369 52.1603 230.287C50.2426 231.201 48.1436 231.688 46.0124 231.715C43.902 231.74 41.8138 231.29 39.908 230.4C38.0194 229.51 36.342 228.241 34.9843 226.674C33.5565 225.028 32.4635 223.129 31.7646 221.078C31.0078 218.864 30.6734 216.531 30.7782 214.197Z" fill="#FF304F"/>
<path d="M83.1042 206.063L173.087 202.581V205.928L83.1042 209.721V206.063Z" fill="#28C7FA"/>
<path d="M83.1042 215.574L173.087 211.282V214.629L83.1042 219.233V215.574Z" fill="#28C7FA"/>
<path d="M561.288 426H290.035C289.846 426 289.665 425.926 289.532 425.795C289.398 425.664 289.323 425.486 289.323 425.301C289.323 425.116 289.398 424.938 289.532 424.807C289.665 424.676 289.846 424.602 290.035 424.602H561.288C561.477 424.602 561.658 424.676 561.792 424.807C561.925 424.938 562 425.116 562 425.301C562 425.486 561.925 425.664 561.792 425.795C561.658 425.926 561.477 426 561.288 426Z" fill="#CACACA"/>
</g>
<defs>
<clipPath id="clip0">
<rect width="562" height="426" fill="white"/>
</clipPath>
</defs>
</svg>
