<svg width="578" height="428" viewBox="0 0 578 428" fill="none" xmlns="http://www.w3.org/2000/svg">
<path d="M35.6732 426.714C35.6732 417.935 39.1611 409.516 45.3695 403.308C51.578 397.1 59.9984 393.613 68.7785 393.613C77.5585 393.613 85.979 397.1 92.1874 403.308C98.3959 409.516 101.884 417.935 101.884 426.714" fill="#FF304F"/>
<path d="M68.7785 426.714C68.5412 426.714 68.3136 426.62 68.1458 426.452C67.978 426.285 67.8838 426.057 67.8838 425.82V408.374C67.8838 408.137 67.978 407.909 68.1458 407.742C68.3136 407.574 68.5412 407.479 68.7785 407.479C69.0158 407.479 69.2434 407.574 69.4112 407.742C69.579 407.909 69.6733 408.137 69.6733 408.374V425.82C69.6733 426.057 69.579 426.285 69.4112 426.452C69.2434 426.62 69.0158 426.714 68.7785 426.714Z" fill="#28C7FA"/>
<path d="M68.7781 420.72C68.5643 420.72 68.3576 420.643 68.1957 420.504L57.459 411.29C57.369 411.213 57.2951 411.12 57.2413 411.015C57.1876 410.91 57.1552 410.796 57.1459 410.678C57.1366 410.56 57.1506 410.442 57.1871 410.33C57.2237 410.218 57.2821 410.114 57.3589 410.025C57.4357 409.935 57.5294 409.862 57.6347 409.809C57.74 409.756 57.8547 409.724 57.9724 409.715C58.09 409.707 58.2082 409.721 58.3201 409.758C58.432 409.796 58.5354 409.855 58.6245 409.932L69.3613 419.146C69.5 419.265 69.5989 419.424 69.6447 419.601C69.6905 419.778 69.681 419.965 69.6175 420.136C69.554 420.307 69.4395 420.455 69.2894 420.559C69.1393 420.664 68.9609 420.72 68.7781 420.72Z" fill="#28C7FA"/>
<path d="M137.673 426.714C137.673 417.935 141.161 409.516 147.37 403.308C153.578 397.1 161.998 393.613 170.778 393.613C179.559 393.613 187.979 397.1 194.187 403.308C200.396 409.516 203.884 417.935 203.884 426.714" fill="#FF304F"/>
<path d="M170.779 426.714C170.541 426.714 170.314 426.62 170.146 426.452C169.978 426.285 169.884 426.057 169.884 425.82V408.374C169.884 408.137 169.978 407.909 170.146 407.742C170.314 407.574 170.541 407.479 170.779 407.479C171.016 407.479 171.243 407.574 171.411 407.742C171.579 407.909 171.673 408.137 171.673 408.374V425.82C171.673 426.057 171.579 426.285 171.411 426.452C171.243 426.62 171.016 426.714 170.779 426.714Z" fill="#28C7FA"/>
<path d="M170.778 420.72C170.564 420.72 170.358 420.643 170.196 420.504L159.459 411.29C159.279 411.135 159.167 410.915 159.149 410.679C159.131 410.442 159.208 410.208 159.363 410.028C159.517 409.848 159.737 409.737 159.974 409.719C160.21 409.701 160.444 409.777 160.624 409.932L171.361 419.146C171.5 419.265 171.599 419.424 171.645 419.601C171.69 419.778 171.681 419.965 171.617 420.136C171.554 420.307 171.439 420.455 171.289 420.559C171.139 420.664 170.961 420.72 170.778 420.72Z" fill="#28C7FA"/>
<path d="M206.568 156.028C213.98 156.028 219.989 150.02 219.989 142.608C219.989 135.197 213.98 129.188 206.568 129.188C199.156 129.188 193.147 135.197 193.147 142.608C193.147 150.02 199.156 156.028 206.568 156.028Z" fill="white"/>
<path d="M206.568 129.188C203.914 129.188 201.319 129.976 199.112 131.45C196.905 132.925 195.184 135.021 194.169 137.473C193.153 139.925 192.887 142.623 193.405 145.226C193.923 147.829 195.201 150.221 197.078 152.097C198.955 153.974 201.346 155.252 203.95 155.77C206.553 156.288 209.252 156.022 211.704 155.006C214.156 153.991 216.252 152.271 217.727 150.064C219.202 147.857 219.989 145.262 219.989 142.608C219.989 139.049 218.575 135.636 216.058 133.119C213.541 130.602 210.128 129.188 206.568 129.188ZM203.355 148.467C203.355 148.568 203.315 148.664 203.244 148.735C203.173 148.806 203.077 148.845 202.976 148.845H199.952C199.852 148.845 199.756 148.806 199.685 148.735C199.614 148.664 199.574 148.568 199.574 148.467V141.285C199.574 141.185 199.614 141.089 199.685 141.018C199.756 140.947 199.852 140.907 199.952 140.907H202.976C203.077 140.907 203.173 140.947 203.244 141.018C203.315 141.089 203.355 141.185 203.355 141.285V148.467ZM213.562 142.797C213.562 143.098 213.443 143.386 213.23 143.599C213.017 143.812 212.729 143.931 212.428 143.931V143.95C212.641 143.994 212.833 144.11 212.971 144.279C213.109 144.447 213.184 144.658 213.184 144.876C213.184 145.094 213.109 145.305 212.971 145.474C212.833 145.643 212.641 145.759 212.428 145.802V146.199C212.628 146.199 212.821 146.279 212.963 146.421C213.104 146.563 213.184 146.755 213.184 146.955C213.184 147.156 213.104 147.348 212.963 147.49C212.821 147.632 212.628 147.711 212.428 147.711H204.867C204.766 147.711 204.67 147.672 204.599 147.601C204.529 147.53 204.489 147.434 204.489 147.333V141.285C204.489 139.395 207.513 136.749 207.513 136.749V135.827C207.513 135.547 207.615 135.276 207.801 135.067C207.987 134.857 208.244 134.723 208.522 134.69C208.8 134.657 209.081 134.727 209.311 134.887C209.541 135.047 209.704 135.286 209.77 135.559L209.782 135.615C209.928 136.947 209.603 138.288 208.863 139.405H211.191C211.225 139.402 211.258 139.395 211.294 139.395H212.428C212.127 139.997 212.078 140.693 212.29 141.331C212.503 141.969 212.96 142.496 213.562 142.797Z" fill="#28C7FA"/>
<path d="M226.252 83.5614C236.629 83.5614 245.042 75.15 245.042 64.7739C245.042 54.3978 236.629 45.9863 226.252 45.9863C215.875 45.9863 207.463 54.3978 207.463 64.7739C207.463 75.15 215.875 83.5614 226.252 83.5614Z" fill="white"/>
<path d="M226.252 45.9863C222.536 45.9863 218.903 47.0882 215.813 49.1526C212.723 51.217 210.315 54.1512 208.893 57.5842C207.471 61.0172 207.099 64.7947 207.824 68.4391C208.549 72.0836 210.338 75.4312 212.966 78.0587C215.594 80.6862 218.942 82.4755 222.586 83.2004C226.231 83.9254 230.009 83.5533 233.443 82.1313C236.876 80.7093 239.81 78.3013 241.875 75.2117C243.94 72.1221 245.042 68.4897 245.042 64.7739C245.042 59.7911 243.062 55.0124 239.538 51.4891C236.015 47.9657 231.235 45.9863 226.252 45.9863ZM221.753 72.9769C221.753 73.1173 221.697 73.2519 221.598 73.3511C221.499 73.4503 221.364 73.5061 221.224 73.5061H216.99C216.849 73.5061 216.715 73.4503 216.616 73.3511C216.516 73.2519 216.46 73.1173 216.46 72.9769V62.9216C216.46 62.7812 216.516 62.6466 216.616 62.5474C216.715 62.4481 216.849 62.3923 216.99 62.3923H221.224C221.364 62.3923 221.499 62.4481 221.598 62.5474C221.698 62.6466 221.753 62.7812 221.753 62.9216V72.9769ZM236.044 65.0385C236.044 65.4595 235.877 65.8634 235.579 66.1611C235.281 66.4589 234.877 66.6262 234.456 66.6262V66.6528C234.755 66.7138 235.023 66.8762 235.216 67.1124C235.409 67.3486 235.515 67.6443 235.515 67.9492C235.515 68.2542 235.409 68.5498 235.216 68.786C235.023 69.0223 234.755 69.1846 234.456 69.2456V69.8015C234.737 69.8015 235.006 69.913 235.205 70.1115C235.403 70.31 235.515 70.5793 235.515 70.86C235.515 71.1407 235.403 71.4099 235.205 71.6084C235.006 71.8069 234.737 71.9184 234.456 71.9184H223.87C223.73 71.9184 223.595 71.8627 223.496 71.7634C223.397 71.6642 223.341 71.5296 223.341 71.3892V62.9216C223.341 60.2754 227.575 56.5708 227.575 56.5708V55.2807C227.575 54.8884 227.718 54.5095 227.979 54.216C228.239 53.9225 228.598 53.7348 228.988 53.6884C229.377 53.6421 229.77 53.7404 230.092 53.9646C230.414 54.1888 230.643 54.5234 230.734 54.9049C230.74 54.9306 230.746 54.9567 230.751 54.9832C231.28 57.6293 229.465 60.29 229.465 60.29H232.724C232.772 60.2856 232.819 60.2754 232.868 60.2754H234.456C234.877 60.2754 235.281 60.4427 235.579 60.7405C235.877 61.0382 236.044 61.442 236.044 61.8631C236.044 62.2842 235.877 62.688 235.579 62.9858C235.281 63.2835 234.877 63.4508 234.456 63.4508C234.877 63.4508 235.281 63.6181 235.579 63.9158C235.877 64.2136 236.044 64.6174 236.044 65.0385V65.0385Z" fill="#28C7FA"/>
<path d="M268.084 266.246C269.452 265.928 270.735 265.314 271.84 264.447C272.946 263.58 273.848 262.481 274.483 261.228C275.118 259.975 275.471 258.597 275.516 257.193C275.561 255.789 275.298 254.392 274.744 253.1L310.178 173.054L289.908 167.949L261.452 248.237C259.344 249.31 257.702 251.12 256.839 253.322C255.976 255.524 255.95 257.967 256.768 260.187C257.585 262.407 259.189 264.25 261.274 265.366C263.36 266.483 265.783 266.796 268.084 266.246V266.246Z" fill="#D9BFC2"/>
<path d="M300.013 198.106L280.299 188.879C279.738 188.616 279.24 188.236 278.839 187.763C278.439 187.291 278.145 186.738 277.977 186.142C277.809 185.546 277.772 184.921 277.868 184.309C277.964 183.697 278.19 183.113 278.532 182.597L290.513 164.505C291.874 161.645 294.313 159.44 297.296 158.375C300.279 157.31 303.563 157.47 306.428 158.822C309.293 160.173 311.505 162.604 312.58 165.583C313.656 168.563 313.506 171.846 312.164 174.716L305.969 195.438C305.791 196.031 305.488 196.579 305.079 197.045C304.671 197.51 304.167 197.882 303.602 198.135C303.037 198.389 302.423 198.517 301.804 198.512C301.185 198.507 300.574 198.368 300.013 198.106H300.013Z" fill="#28C7FA"/>
<path d="M231.47 187.811L253.205 203.198C253.484 203.4 253.819 203.508 254.163 203.508C254.507 203.508 254.842 203.4 255.121 203.198L260.994 198.788C261.189 198.645 261.35 198.46 261.464 198.247C261.578 198.034 261.642 197.797 261.652 197.556C261.662 197.314 261.618 197.073 261.522 196.851C261.426 196.629 261.282 196.431 261.099 196.273L244.374 181.36C244.155 181.168 243.888 181.038 243.601 180.982C243.315 180.927 243.019 180.948 242.743 181.044L231.86 184.938C231.58 185.041 231.334 185.219 231.148 185.451C230.961 185.684 230.842 185.962 230.802 186.258C230.762 186.553 230.803 186.854 230.921 187.127C231.038 187.401 231.228 187.637 231.47 187.811H231.47Z" fill="#3F3D56"/>
<path d="M233.446 186.624L253.033 200.49C253.131 200.565 253.251 200.605 253.374 200.606C253.497 200.607 253.617 200.569 253.717 200.497L258.999 196.531C259.06 196.488 259.111 196.434 259.15 196.371C259.189 196.308 259.215 196.238 259.227 196.165C259.239 196.092 259.237 196.018 259.22 195.945C259.203 195.873 259.172 195.806 259.129 195.746C259.104 195.713 259.077 195.683 259.046 195.656L243.961 182.205C243.882 182.138 243.787 182.092 243.685 182.073C243.584 182.055 243.478 182.063 243.381 182.098L233.578 185.605C233.48 185.643 233.394 185.707 233.329 185.789C233.264 185.872 233.222 185.971 233.209 186.075C233.195 186.18 233.21 186.286 233.252 186.382C233.294 186.479 233.361 186.563 233.446 186.624V186.624Z" fill="white"/>
<path d="M310.685 417.203L299.715 417.202L294.497 374.896L310.687 374.897L310.685 417.203Z" fill="#D9BFC2"/>
<path d="M313.482 427.835L278.113 427.833V427.386C278.113 425.578 278.469 423.788 279.161 422.118C279.853 420.448 280.867 418.931 282.145 417.653C283.423 416.374 284.941 415.36 286.611 414.669C288.282 413.977 290.072 413.621 291.88 413.621H291.881L313.483 413.622L313.482 427.835Z" fill="#2F2E41"/>
<path d="M347.369 417.203L336.4 417.202L331.181 374.896L347.371 374.897L347.369 417.203Z" fill="#D9BFC2"/>
<path d="M350.167 427.835L314.797 427.833V427.386C314.797 425.578 315.153 423.788 315.845 422.118C316.537 420.448 317.551 418.931 318.829 417.653C320.108 416.374 321.625 415.36 323.296 414.669C324.966 413.977 326.756 413.621 328.564 413.621H328.565L350.167 413.622L350.167 427.835Z" fill="#2F2E41"/>
<path d="M346.867 405.433C346.768 405.433 346.669 405.43 346.569 405.423L333.954 404.489C333.09 404.421 332.27 404.077 331.615 403.509C330.961 402.94 330.506 402.177 330.318 401.33L308.414 281.115C308.342 280.783 308.146 280.49 307.866 280.297C307.586 280.104 307.243 280.024 306.907 280.073C306.57 280.123 306.265 280.299 306.053 280.565C305.841 280.831 305.738 281.167 305.765 281.507L313.542 399.951C313.586 400.505 313.514 401.061 313.332 401.586C313.15 402.11 312.862 402.592 312.485 402.999C312.108 403.407 311.651 403.732 311.142 403.955C310.633 404.177 310.084 404.292 309.528 404.292H299.923C299.112 404.293 298.321 404.048 297.652 403.592C296.983 403.135 296.467 402.488 296.171 401.733C272.013 338.476 280.762 214.532 280.831 213.285L281.726 212.39L329.843 220.698L329.945 220.796C346.385 232.871 353.5 374.273 350.886 401.171C350.87 402.314 350.448 403.413 349.696 404.274C348.942 405.017 347.926 405.433 346.867 405.433Z" fill="#2F2E41"/>
<path d="M286.382 139.884C298.519 139.884 308.358 130.046 308.358 117.911C308.358 105.775 298.519 95.9374 286.382 95.9374C274.245 95.9374 264.406 105.775 264.406 117.911C264.406 130.046 274.245 139.884 286.382 139.884Z" fill="#D9BFC2"/>
<path d="M336.782 241.111C336.559 241.111 336.335 241.089 336.116 241.044L279.678 233.803C277.657 233.395 276.215 231.239 276.324 228.786L281.726 198.971C274.568 190.024 281.332 166.919 285.705 161.078L284.014 156.501C283.578 155.312 283.551 154.012 283.939 152.807C284.271 151.672 285.034 150.712 286.064 150.132L308.969 137.964C311 136.885 313.382 137.989 314.281 140.423L318.773 152.577L318.704 152.613C329.459 158.377 338.989 164.08 331.831 194.497L340.805 236.507C340.775 237.831 340.241 239.095 339.312 240.039C338.641 240.713 337.733 241.098 336.782 241.111Z" fill="#28C7FA"/>
<path d="M257.15 191.861C257.511 192.2 257.844 192.567 258.147 192.959L302.414 189.901L307.163 180.224L322.705 185.482L315.963 203.429C315.418 204.879 314.418 206.113 313.112 206.946C311.806 207.779 310.265 208.166 308.721 208.049L258.383 204.232C257.268 205.779 255.709 206.951 253.913 207.591C252.116 208.231 250.167 208.309 248.325 207.814C246.483 207.32 244.835 206.276 243.601 204.822C242.366 203.368 241.604 201.573 241.415 199.675C241.226 197.778 241.619 195.867 242.542 194.199C243.465 192.53 244.875 191.182 246.583 190.333C248.291 189.485 250.217 189.177 252.105 189.45C253.993 189.723 255.752 190.564 257.15 191.861Z" fill="#D9BFC2"/>
<path d="M301.615 187.767C301.395 187.232 301.293 186.656 301.315 186.078C301.338 185.5 301.485 184.933 301.746 184.417L310.875 166.39C311.809 163.582 313.82 161.259 316.465 159.93C319.11 158.602 322.174 158.376 324.985 159.303C327.796 160.229 330.126 162.233 331.462 164.874C332.798 167.515 333.033 170.578 332.114 173.391L328.598 193.356C328.498 193.926 328.276 194.467 327.947 194.943C327.619 195.419 327.191 195.819 326.694 196.116C326.197 196.412 325.642 196.597 325.067 196.66C324.492 196.722 323.91 196.66 323.361 196.477L304.067 190.054C303.518 189.872 303.014 189.573 302.591 189.178C302.168 188.784 301.835 188.302 301.615 187.767Z" fill="#28C7FA"/>
<path d="M232.529 173.048C232.347 173.217 232.108 173.311 231.86 173.311C231.612 173.311 231.373 173.217 231.191 173.048L230.678 172.583C226.474 168.727 224.047 166.222 224.047 163.098C224.047 160.55 225.66 158.581 228.188 158.581C228.889 158.585 229.58 158.741 230.215 159.039C230.849 159.337 231.411 159.768 231.862 160.305C232.312 159.769 232.873 159.337 233.507 159.039C234.141 158.741 234.832 158.585 235.532 158.581C238.064 158.581 239.673 160.544 239.673 163.098C239.673 166.215 237.246 168.721 233.043 172.583L232.529 173.048Z" fill="#FF304F"/>
<path d="M201.826 119.613C201.478 119.937 201.02 120.117 200.544 120.117C200.069 120.117 199.611 119.937 199.263 119.613L198.279 118.723C190.224 111.334 185.573 106.533 185.573 100.548C185.573 95.6652 188.663 91.8923 193.509 91.8923C194.851 91.9 196.176 92.1993 197.391 92.7696C198.607 93.3399 199.684 94.1676 200.547 95.1952C201.41 94.1677 202.486 93.3401 203.7 92.7698C204.915 92.1995 206.238 91.9001 207.58 91.8923C212.432 91.8923 215.515 95.6527 215.515 100.548C215.515 106.52 210.864 111.321 202.81 118.723L201.826 119.613Z" fill="#FF304F"/>
<path d="M203.104 36.0038C202.652 36.425 202.057 36.6591 201.439 36.6591C200.821 36.6591 200.226 36.425 199.774 36.0038L198.496 34.8479C188.035 25.2507 181.994 19.0154 181.994 11.2415C181.994 4.90037 186.008 0 192.301 0C194.045 0.00994223 195.765 0.398738 197.344 1.13945C198.922 1.88017 200.321 2.95511 201.443 4.28984C202.564 2.95531 203.961 1.88041 205.538 1.13966C207.115 0.398907 208.835 0.0100254 210.577 0C216.878 0 220.884 4.8841 220.884 11.2415C220.884 18.9991 214.843 25.2344 204.382 34.8479L203.104 36.0038Z" fill="#FF304F"/>
<path d="M577.105 428H0.894737C0.657438 428 0.429871 427.906 0.262075 427.738C0.0942796 427.57 0 427.343 0 427.105C0 426.868 0.0942796 426.641 0.262075 426.473C0.429871 426.305 0.657438 426.211 0.894737 426.211H577.105C577.343 426.211 577.57 426.305 577.738 426.473C577.906 426.641 578 426.868 578 427.105C578 427.343 577.906 427.57 577.738 427.738C577.57 427.906 577.343 428 577.105 428Z" fill="#28C7FA"/>
<path d="M298.726 100.56C308.609 100.56 316.621 92.5488 316.621 82.6668C316.621 72.7849 308.609 64.7739 298.726 64.7739C288.843 64.7739 280.831 72.7849 280.831 82.6668C280.831 92.5488 288.843 100.56 298.726 100.56Z" fill="#2F2E41"/>
<path d="M265.579 120.627C263.831 120.812 261.971 120.978 260.399 120.193C259.557 119.716 258.84 119.047 258.306 118.241C257.772 117.435 257.435 116.514 257.323 115.553C253.989 93.4026 272.826 95.2247 275.054 94.2653C276.552 93.6204 277.655 92.3224 278.994 91.3908C281.922 89.3533 285.72 89.2044 289.286 89.1275C293.52 89.0362 297.907 88.9733 301.792 90.6563C305.286 92.2932 308.189 94.9689 310.105 98.3178C312.001 101.652 313.39 105.25 314.227 108.994C315.304 113.276 316.037 117.807 314.928 122.081C314.013 125.33 312.104 128.211 309.47 130.322C306.836 132.433 303.608 133.668 300.237 133.853C301.683 128.748 298.527 123.088 293.846 120.59C290.069 118.732 285.77 118.22 281.662 119.139C278.998 119.679 276.296 120.015 273.581 120.145C270.917 120.245 267.718 120.401 265.579 120.627Z" fill="#2F2E41"/>
<path d="M552.6 189.447C552.6 146.268 517.569 43.8065 474.357 43.8065C431.144 43.8065 396.114 146.268 396.114 189.447C396.129 210.186 404.38 230.07 419.052 244.729C433.723 259.388 453.616 267.623 474.357 267.623C495.098 267.623 514.991 259.388 529.662 244.729C544.334 230.07 552.584 210.186 552.6 189.447Z" fill="#FF304F"/>
<path d="M474.357 427.105C474.12 427.105 473.892 427.011 473.724 426.843C473.556 426.676 473.462 426.448 473.462 426.211V179.163C473.462 178.925 473.556 178.698 473.724 178.53C473.892 178.362 474.12 178.268 474.357 178.268C474.594 178.268 474.822 178.362 474.99 178.53C475.157 178.698 475.252 178.925 475.252 179.163V426.211C475.252 426.448 475.157 426.675 474.99 426.843C474.822 427.011 474.594 427.105 474.357 427.105Z" fill="#28C7FA"/>
<path d="M474.357 213.285C474.229 213.285 474.102 213.258 473.985 213.205C473.869 213.151 473.765 213.074 473.681 212.977L428.681 161.087C428.527 160.908 428.449 160.674 428.466 160.438C428.484 160.202 428.594 159.982 428.773 159.827C428.952 159.672 429.185 159.594 429.421 159.61C429.658 159.627 429.878 159.736 430.033 159.915L475.033 211.804C475.145 211.934 475.218 212.093 475.242 212.263C475.267 212.432 475.242 212.606 475.171 212.762C475.1 212.918 474.985 213.05 474.841 213.143C474.697 213.236 474.529 213.285 474.357 213.285Z" fill="#28C7FA"/>
<path d="M474.357 243.231C474.18 243.231 474.007 243.179 473.86 243.08C473.713 242.982 473.598 242.842 473.53 242.679C473.463 242.515 473.445 242.336 473.48 242.162C473.514 241.989 473.599 241.829 473.724 241.704L499.294 216.137C499.377 216.054 499.475 215.988 499.584 215.943C499.693 215.898 499.809 215.875 499.926 215.875C500.044 215.875 500.16 215.898 500.269 215.943C500.377 215.988 500.476 216.054 500.559 216.137C500.642 216.22 500.708 216.318 500.753 216.427C500.798 216.536 500.821 216.652 500.821 216.769C500.821 216.887 500.798 217.003 500.753 217.112C500.708 217.22 500.642 217.319 500.559 217.402L474.99 242.969C474.907 243.052 474.808 243.118 474.699 243.163C474.591 243.208 474.474 243.231 474.357 243.231Z" fill="#28C7FA"/>
<path d="M474.357 341.642C474.18 341.642 474.007 341.59 473.86 341.491C473.713 341.393 473.598 341.253 473.53 341.09C473.463 340.926 473.445 340.747 473.48 340.573C473.514 340.4 473.599 340.24 473.724 340.115L499.294 314.548C499.462 314.38 499.689 314.286 499.926 314.286C500.164 314.286 500.391 314.38 500.559 314.548C500.727 314.716 500.821 314.943 500.821 315.18C500.821 315.418 500.727 315.645 500.559 315.813L474.99 341.38C474.907 341.463 474.808 341.529 474.699 341.574C474.591 341.619 474.474 341.642 474.357 341.642Z" fill="#28C7FA"/>
</svg>
