<svg width="520" height="413" viewBox="0 0 520 413" fill="none" xmlns="http://www.w3.org/2000/svg">
<g clip-path="url(#clip0)">
<path opacity="0.1" d="M304.962 69.795C272.059 68.6522 240.717 58.0423 210.793 46.4318C180.869 34.8213 151.23 21.9563 119.115 15.8057C98.4595 11.8492 74.8347 11.2905 58.1952 22.3525C42.1758 33.0183 37.0005 51.3787 34.2196 68.4338C32.125 81.2632 30.8947 94.7631 36.6344 106.775C40.6151 115.114 47.6868 122.123 52.5724 130.138C69.5882 157.93 57.5648 192.203 39.1255 219.34C30.4829 232.073 20.4422 244.226 13.7722 257.767C7.10214 271.307 4.01114 286.844 9.84743 300.669C15.638 314.382 29.4306 324.662 44.367 331.899C74.7127 346.603 110.457 350.808 145.338 353.19C222.527 358.467 300.122 356.182 377.514 353.896C406.156 353.048 434.921 352.19 463.096 347.766C478.744 345.308 494.896 341.412 506.258 331.996C520.676 320.045 524.25 299.805 514.591 284.823C498.378 259.687 453.584 253.445 442.237 226.465C436.004 211.62 442.41 195.083 451.469 181.308C470.91 151.769 503.492 125.851 505.211 92.0865C506.39 68.8909 490.722 45.6699 466.502 34.6943C441.118 23.1499 405.907 24.6126 387.189 43.6536C367.9 63.2736 334.011 70.8006 304.962 69.795Z" fill="#FF304F"/>
<path d="M221.378 350.702L47.3666 349.853L30.0763 309.339L91.2151 304.905L80.5593 260.484L201.485 244.826L85.6889 204.611L95.9177 202.183L282.115 232.53L271.861 301.852L257.204 339.949L221.378 350.702Z" fill="#FF304F"/>
<path d="M50.0356 332.885C50.0356 332.885 60.7118 331.178 67.1175 338.715C67.1175 338.715 62.42 342.413 52.3132 337.293L50.0356 332.885Z" fill="#FF304F"/>
<path d="M48.9171 332.717C48.9171 332.717 42.1047 341.092 45.4601 350.417C45.4601 350.417 51.0117 348.198 51.6166 336.892L48.9171 332.717Z" fill="#FF304F"/>
<path d="M42.7961 318.948C42.7961 318.948 47.0666 311.121 64.1485 322.077C64.1485 322.077 61.8709 327.338 54.3264 326.912C46.7819 326.485 44.789 323.072 42.7961 318.948Z" fill="#FF304F"/>
<path d="M41.6929 318.384C41.6929 318.384 32.8317 317.368 31.9725 337.633C31.9725 337.633 37.5902 338.797 41.5811 332.387C45.5719 325.977 43.9349 322.381 41.6929 318.384Z" fill="#FF304F"/>
<path d="M36.5328 302.218C36.5328 302.218 41.515 288.423 59.5933 298.236C59.5933 298.236 55.4652 310.893 38.3834 306.911L36.5328 302.218Z" fill="#FF304F"/>
<path d="M30.9812 281.597C30.9812 281.597 40.3762 267.661 57.031 280.582C57.031 280.582 51.1947 293.665 32.4047 286.554L30.9812 281.597Z" fill="#FF304F"/>
<path d="M28.9883 261.972C28.9883 261.972 39.9491 249.168 56.4413 261.972C56.4413 261.972 46.0498 273.207 28.9883 265.243V261.972Z" fill="#FF304F"/>
<path d="M27.2802 242.911C27.2802 242.911 38.3834 229.543 54.1841 242.2C54.1841 242.2 41.6574 254.003 27.2802 246.04V242.911Z" fill="#FF304F"/>
<path d="M28.2766 225.988C28.2766 225.988 39.9695 208.78 54.7535 220.442C54.7535 220.442 42.2268 235.232 28.2766 229.259V225.988Z" fill="#FF304F"/>
<path d="M30.9812 206.221C30.9812 206.221 43.3655 189.155 57.7428 202.239C57.7428 202.239 43.0808 217.029 30.9812 209.349V206.221Z" fill="#FF304F"/>
<path d="M35.1093 188.551C35.1093 188.551 49.7712 172.512 62.5623 178.901C62.5623 178.901 47.2852 195.936 34.4688 192.807L35.1093 188.551Z" fill="#FF304F"/>
<path d="M40.2339 171.801C40.2339 171.801 57.153 152.155 66.9954 158.717C66.9954 158.717 54.5297 173.954 39.0341 175.478L40.2339 171.801Z" fill="#FF304F"/>
<path d="M47.6309 152.374C47.6309 152.374 62.4402 136.334 73.2587 140.316C73.2587 140.316 60.5897 156.955 45.6431 157.381L47.6309 152.374Z" fill="#FF304F"/>
<path d="M54.3264 134.201C54.3264 134.201 70.6965 118.842 77.8139 121.544C77.8139 121.544 65.999 138.61 53.6146 137.614L54.3264 134.201Z" fill="#FF304F"/>
<path d="M60.8744 117.42C60.8744 117.42 74.9669 99.07 82.6588 100.492C82.6588 100.492 74.1128 116.851 60.8744 119.284V117.42Z" fill="#FF304F"/>
<path d="M67.9817 94.7936C67.9817 94.7936 80.4373 80.73 87.1683 80.7604C87.1683 80.7604 77.3361 99.5525 67.4683 99.3799L67.9817 94.7936Z" fill="#FF304F"/>
<path d="M72.1911 79.7294L84.2247 50.434C84.2247 50.434 84.8246 76.9156 70.6609 85.1639L72.1911 79.7294Z" fill="#FF304F"/>
<path d="M77.0767 47.4221C77.0767 47.4221 79.0696 22.9568 77.7884 20.9659C77.7884 20.9659 86.3904 41.3071 76.9954 58.2301L77.0767 47.4221Z" fill="#FF304F"/>
<path d="M36.065 301.893C36.065 301.893 23.5892 294.168 15.5109 313.067C15.5109 313.067 26.6141 320.431 37.5343 306.713L36.065 301.893Z" fill="#FF304F"/>
<path d="M30.5796 280.81C30.5796 280.81 15.2771 273.837 7.85461 293.568C7.85461 293.568 19.6746 301.695 31.9726 285.798L30.5796 280.81Z" fill="#FF304F"/>
<path d="M28.2766 263.146C28.2766 263.146 17.3157 250.342 0.823608 263.146C0.823608 263.146 11.2151 274.38 28.2766 266.416V263.146Z" fill="#FF304F"/>
<path d="M26.9039 242.911C26.9039 242.911 15.8007 229.543 0 242.2C0 242.2 12.5267 254.003 26.9039 246.04V242.911Z" fill="#FF304F"/>
<path d="M28.2766 226.475C28.2766 226.475 20.488 207.201 3.55872 215.49C3.55872 215.49 12.7097 232.58 27.5851 229.675L28.2766 226.475Z" fill="#FF304F"/>
<path d="M31.9624 206.124C31.9624 206.124 24.2197 186.514 7.05139 195.606C7.05139 195.606 17.5649 213.58 31.1998 209.151L31.9624 206.124Z" fill="#FF304F"/>
<path d="M36.7615 188.647C36.7615 188.647 33.7112 167.148 19.4763 165.223C19.4763 165.223 22.4961 187.896 34.8449 192.523L36.7615 188.647Z" fill="#FF304F"/>
<path d="M40.5948 171.841C40.5948 171.841 39.4052 145.939 27.636 145.035C27.636 145.035 28.0325 164.695 39.2679 175.508L40.5948 171.841Z" fill="#FF304F"/>
<path d="M48.851 151.647C48.851 151.647 45.3432 130.108 34.1078 127.477C34.1078 127.477 35.5008 148.336 47.7377 156.935L48.851 151.647Z" fill="#FF304F"/>
<path d="M55.6584 134.379C55.6584 134.379 55.5415 111.94 48.6782 108.644C48.6782 108.644 44.423 128.96 53.6706 137.243L55.6584 134.379Z" fill="#FF304F"/>
<path d="M61.3981 117.166C61.3981 117.166 60.4372 94.0622 53.3299 90.8066C53.3299 90.8066 50.8998 109.091 60.3355 118.68L61.3981 117.166Z" fill="#FF304F"/>
<path d="M68.9731 96.6372C68.9731 96.6372 68.9324 77.8451 63.8587 73.4366C63.8587 73.4366 58.8154 94.0216 66.3243 100.416L68.9731 96.6372Z" fill="#FF304F"/>
<path d="M71.5963 78.805L66.6598 47.5288C66.6598 47.5288 59.9542 73.1572 71.8301 84.4528L71.5963 78.805Z" fill="#FF304F"/>
<path d="M72.5572 47.7167C72.5572 47.7167 59.8882 26.6899 60.1475 24.3536C60.1475 24.3536 61.4947 46.3911 77.4327 57.3668L72.5572 47.7167Z" fill="#FF304F"/>
<path d="M74.0417 41.5052C74.0417 41.5052 62.0844 11.641 56.6752 9.22339C56.6752 9.22339 73.757 17.8982 75.0382 40.6519L74.0417 41.5052Z" fill="#FF304F"/>
<path d="M67.4073 99.5576L66.5887 99.3087C76.6802 66.4327 79.1968 45.4718 73.6808 40.2151L74.2654 39.5955C80.117 45.1417 77.7428 65.874 67.4073 99.5576Z" fill="#28C7FA"/>
<path d="M39.6187 176.534L38.4087 176.103C39.4814 173.091 40.6354 170.033 41.8454 167.021C52.3792 140.794 61.3472 116.394 67.097 97.6632L68.1494 97.1553C62.3894 115.922 53.579 141.256 43.035 167.519C41.8301 170.475 40.6812 173.517 39.6187 176.534Z" fill="#28C7FA"/>
<path d="M65.0788 357.487C64.9161 357.309 48.5613 338.908 37.1581 307.495C30.4765 289.104 26.7581 269.77 26.1413 250.215C25.3584 225.77 30.4931 198.475 39.2883 173.68L40.244 174.797C20.4982 230.447 28.3427 278.134 38.7494 306.85C50.0305 337.979 66.2023 356.177 66.3599 356.36L65.0788 357.487Z" fill="#28C7FA"/>
<path d="M320.656 318.42C320.656 318.42 309.131 332.473 318.282 353.719L226.263 393.588L217.433 395.437L213.365 377.661L216.085 355.227V342.966L320.656 318.42Z" fill="#D5D6DB"/>
<path d="M30.0763 309.339L157.438 286.143L326.197 313.001L221.378 350.702L30.0763 309.339Z" fill="#FF304F"/>
<path d="M30.0763 309.339L157.438 286.143L326.197 313.001L221.378 350.702L30.0763 309.339Z" fill="#FF304F"/>
<path d="M30.0762 309.334C30.0762 309.334 18.1647 331.879 31.8912 352.703L220.757 393.588C220.757 393.588 209.034 375.629 221.362 350.702L30.0762 309.334Z" fill="#FF304F"/>
<path opacity="0.1" d="M30.0762 309.334C30.0762 309.334 18.1647 331.879 31.8912 352.703L220.757 393.588C220.757 393.588 209.034 375.629 221.362 350.702L30.0762 309.334Z" fill="#28C7FA"/>
<path opacity="0.1" d="M35.7041 317.15C35.7041 317.15 28.8967 333.646 35.7041 344.322V317.15Z" fill="#28C7FA"/>
<path d="M220.758 393.588L326.197 348.64C326.197 348.64 332.095 349.909 328.282 354.226C324.469 358.543 222.791 397.905 222.791 397.905L31.8912 352.703L220.758 393.588Z" fill="#FF304F"/>
<path opacity="0.1" d="M220.758 393.588L326.197 348.64C326.197 348.64 332.095 349.909 328.282 354.226C324.469 358.543 222.791 397.905 222.791 397.905L31.8912 352.703L220.758 393.588Z" fill="#28C7FA"/>
<path opacity="0.1" d="M212.115 355.242C212.115 355.242 201.947 367.432 212.115 385.716V355.242Z" fill="#28C7FA"/>
<path opacity="0.1" d="M261.341 355.036L215.734 370.237L215.895 370.719L261.502 355.518L261.341 355.036Z" fill="#28C7FA"/>
<path opacity="0.1" d="M270.476 353.523L215.719 374.325L215.9 374.8L270.656 353.998L270.476 353.523Z" fill="#28C7FA"/>
<path opacity="0.1" d="M278.865 353.451L216.025 379.147L216.217 379.617L279.057 353.921L278.865 353.451Z" fill="#28C7FA"/>
<path opacity="0.1" d="M287.988 351.25L216.758 383.395L216.968 383.858L288.197 351.713L287.988 351.25Z" fill="#28C7FA"/>
<path opacity="0.1" d="M295.652 351.261L217.322 385.465L217.526 385.93L295.856 351.726L295.652 351.261Z" fill="#28C7FA"/>
<path opacity="0.1" d="M312.416 348.416L218.503 388.939L218.705 389.405L312.618 348.883L312.416 348.416Z" fill="#28C7FA"/>
<path opacity="0.3" d="M77.392 311.817L166.868 293.025L221.378 303.437L148.058 327.054L77.392 311.817Z" fill="white"/>
<path d="M326.197 313.001C326.197 313.001 330.824 314.865 328.109 317.744C325.394 320.624 221.363 350.702 221.363 350.702L326.197 313.001Z" fill="#FF304F"/>
<path d="M371.134 269.57C371.134 269.57 359.614 283.619 368.765 304.869L276.746 344.739L267.915 346.598L263.848 328.822L266.609 306.393V294.117L371.134 269.57Z" fill="#D5D6DB"/>
<path d="M80.5592 260.484L207.916 237.294L376.68 264.151L271.861 301.852L80.5592 260.484Z" fill="#28C7FA"/>
<path d="M80.5389 260.484C80.5389 260.484 68.6223 283.03 82.3487 303.853L271.215 344.739C271.215 344.739 259.497 326.764 271.84 301.847L80.5389 260.484Z" fill="#28C7FA"/>
<path opacity="0.1" d="M80.5389 260.484C80.5389 260.484 68.6223 283.03 82.3487 303.853L271.215 344.739C271.215 344.739 259.497 326.764 271.84 301.847L212.115 288.931L80.5389 260.484Z" fill="#28C7FA"/>
<path opacity="0.1" d="M86.182 268.301C86.182 268.301 79.3798 284.792 86.182 295.473V268.301Z" fill="#28C7FA"/>
<path d="M271.235 344.739L376.68 299.79C376.68 299.79 382.573 301.06 378.76 305.377C374.947 309.694 273.269 349.056 273.269 349.056L82.3691 303.853L271.235 344.739Z" fill="#28C7FA"/>
<path opacity="0.1" d="M271.235 344.739L376.68 299.79C376.68 299.79 382.573 301.06 378.76 305.377C374.947 309.694 273.269 349.056 273.269 349.056L82.3691 303.853L271.235 344.739Z" fill="#28C7FA"/>
<path opacity="0.1" d="M262.593 306.393C262.593 306.393 252.425 318.582 262.593 336.867V306.393Z" fill="#28C7FA"/>
<path opacity="0.1" d="M311.823 306.192L266.216 321.393L266.376 321.875L311.984 306.674L311.823 306.192Z" fill="#28C7FA"/>
<path opacity="0.1" d="M320.964 304.677L266.208 325.479L266.388 325.953L321.145 305.152L320.964 304.677Z" fill="#28C7FA"/>
<path opacity="0.1" d="M329.346 304.597L266.506 330.294L266.698 330.764L329.538 305.067L329.346 304.597Z" fill="#28C7FA"/>
<path opacity="0.1" d="M338.474 302.398L267.245 334.543L267.454 335.006L338.684 302.861L338.474 302.398Z" fill="#28C7FA"/>
<path opacity="0.1" d="M346.131 302.402L267.802 336.606L268.005 337.072L346.335 302.867L346.131 302.402Z" fill="#28C7FA"/>
<path opacity="0.1" d="M362.899 299.557L268.987 340.08L269.188 340.546L363.101 300.024L362.899 299.557Z" fill="#28C7FA"/>
<path opacity="0.45" d="M127.875 262.968L217.351 244.176L271.861 254.588L198.541 278.205L127.875 262.968Z" fill="white"/>
<path d="M376.68 264.151C376.68 264.151 381.301 266.015 378.592 268.89C375.882 271.765 271.861 301.847 271.861 301.847L376.68 264.151Z" fill="#28C7FA"/>
<path d="M375.913 213.687C375.913 213.687 364.387 238.914 373.538 260.159L281.52 288.855L272.71 290.719L268.643 272.943L271.362 250.509V238.233L375.913 213.687Z" fill="#D5D6DB"/>
<path d="M85.3533 204.606L212.715 181.41L381.479 208.267L276.655 245.969L85.3533 204.606Z" fill="#FF304F"/>
<path d="M85.3533 204.6C85.3533 204.6 73.4215 227.146 87.148 247.97L276.014 288.855C276.014 288.855 264.291 270.881 276.634 245.969L85.3533 204.6Z" fill="#FF304F"/>
<path opacity="0.1" d="M85.3533 204.6C85.3533 204.6 73.4215 227.146 87.148 247.97L276.014 288.855C276.014 288.855 264.291 270.881 276.634 245.969L85.3533 204.6Z" fill="#28C7FA"/>
<path opacity="0.1" d="M90.9812 212.417C90.9812 212.417 84.1738 228.913 90.9812 239.589V212.417Z" fill="#28C7FA"/>
<path d="M276.034 288.855L381.474 255.08C381.474 255.08 387.372 256.35 383.559 260.667C379.746 264.984 278.068 293.172 278.068 293.172L87.1682 247.97L276.034 288.855Z" fill="#FF304F"/>
<path opacity="0.1" d="M276.034 288.855L381.474 255.08C381.474 255.08 387.372 256.35 383.559 260.667C379.746 264.984 278.068 293.172 278.068 293.172L87.1682 247.97L276.034 288.855Z" fill="#28C7FA"/>
<path opacity="0.1" d="M267.392 250.509C267.392 250.509 257.224 262.699 267.392 280.983V250.509Z" fill="#28C7FA"/>
<path opacity="0.1" d="M316.623 250.307L271.016 265.508L271.177 265.99L316.784 250.789L316.623 250.307Z" fill="#28C7FA"/>
<path opacity="0.1" d="M325.761 248.795L271.005 269.597L271.185 270.071L325.942 249.27L325.761 248.795Z" fill="#28C7FA"/>
<path opacity="0.1" d="M334.138 248.717L271.298 274.414L271.491 274.884L334.331 249.187L334.138 248.717Z" fill="#28C7FA"/>
<path opacity="0.1" d="M343.274 246.513L272.044 278.659L272.254 279.121L343.483 246.976L343.274 246.513Z" fill="#28C7FA"/>
<path opacity="0.1" d="M350.933 246.522L272.604 280.727L272.807 281.192L351.137 246.988L350.933 246.522Z" fill="#28C7FA"/>
<path opacity="0.1" d="M367.7 243.681L273.787 284.204L273.989 284.67L367.901 244.148L367.7 243.681Z" fill="#28C7FA"/>
<path opacity="0.3" d="M132.669 207.084L222.145 188.292L276.655 198.704L203.335 222.321L132.669 207.084Z" fill="white"/>
<path d="M381.474 208.267C381.474 208.267 386.101 210.131 383.386 213.011C380.671 215.891 276.655 245.969 276.655 245.969L381.474 208.267Z" fill="#FF304F"/>
<path d="M157.814 54.0908C157.814 54.0908 138.495 52.9277 140.752 66.4682C140.752 66.4682 140.3 68.8604 142.471 69.9473C142.471 69.9473 142.506 68.9315 144.453 69.282C145.148 69.4012 145.855 69.4353 146.558 69.3835C147.506 69.3187 148.407 68.948 149.126 68.3271C149.126 68.3271 154.56 66.0822 156.675 57.2042C156.675 57.2042 158.241 55.2691 158.2 54.7714L154.926 56.163C154.926 56.163 156.04 58.5146 155.165 60.47C155.165 60.47 155.058 56.2494 154.428 56.3459C154.301 56.3459 152.735 57.1636 152.735 57.1636C152.735 57.1636 154.652 61.2623 153.203 64.2386C153.203 64.2386 153.752 59.1901 152.135 57.4582L149.837 58.799C149.837 58.799 152.079 63.0298 150.559 66.4835C150.559 66.4835 150.951 61.1861 149.354 59.1241L147.27 60.7493C147.27 60.7493 149.38 64.9192 148.094 67.7837C148.094 67.7837 147.926 61.6178 146.823 61.1506C146.823 61.1506 144.997 62.7555 144.723 63.4158C144.723 63.4158 146.167 66.4631 145.267 68.0427C145.267 68.0427 144.723 63.9338 144.25 63.9135C144.25 63.9135 142.435 66.6358 142.247 68.4846C142.335 66.761 142.873 65.0905 143.808 63.6393C142.762 63.837 141.797 64.3367 141.032 65.0766C141.032 65.0766 141.312 63.1517 144.26 62.9841C144.26 62.9841 145.76 60.9169 146.162 60.795C146.162 60.795 143.228 60.5462 141.454 61.3334C141.454 61.3334 143.02 59.5202 146.695 60.3176L148.729 58.6416C148.729 58.6416 144.875 58.1337 143.238 58.6974C143.238 58.6974 145.125 57.0925 149.283 58.2606L151.525 56.9249C151.525 56.9249 148.236 56.2189 146.279 56.4729C146.279 56.4729 148.343 55.3606 152.181 56.5643L153.777 55.8481C153.777 55.8481 151.373 55.3758 150.666 55.2996C149.959 55.2234 149.924 55.0304 149.924 55.0304C151.45 54.78 153.016 54.9558 154.448 55.5383C154.448 55.5383 157.88 54.3041 157.814 54.0908Z" fill="#FF304F"/>
<path opacity="0.1" d="M429.598 109.746C429.598 109.746 410.28 108.583 412.537 122.123C412.537 122.123 412.085 124.516 414.255 125.602C414.255 125.602 414.291 124.587 416.238 124.937C416.933 125.054 417.64 125.088 418.343 125.039C419.282 124.97 420.174 124.599 420.885 123.982C420.885 123.982 426.324 121.737 428.434 112.859C428.434 112.859 430 110.924 429.959 110.427L426.696 111.818C426.696 111.818 427.809 114.17 426.935 116.125C426.935 116.125 426.828 111.905 426.202 112.001C426.075 112.001 424.504 112.819 424.504 112.819C424.504 112.819 426.421 116.917 424.977 119.894C424.977 119.894 425.526 114.845 423.905 113.113L421.607 114.454C421.607 114.454 423.849 118.685 422.329 122.139C422.329 122.139 422.72 116.841 421.124 114.779L419.044 116.404C419.044 116.404 421.149 120.574 419.863 123.439C419.863 123.439 419.695 117.273 418.592 116.806C418.592 116.806 416.772 118.411 416.492 119.071C416.492 119.071 417.936 122.118 417.041 123.698C417.041 123.698 416.492 119.589 416.025 119.569C416.025 119.569 414.21 122.291 414.021 124.14C414.109 122.415 414.649 120.745 415.587 119.294C414.54 119.493 413.573 119.992 412.806 120.732C412.806 120.732 413.091 118.807 416.035 118.639C416.035 118.639 417.534 116.572 417.936 116.445C417.936 116.445 415.008 116.201 413.228 116.989C413.228 116.989 414.794 115.175 418.47 115.973L420.503 114.297C420.503 114.297 416.645 113.789 415.013 114.353C415.013 114.353 416.894 112.748 421.058 113.916L423.294 112.58C423.294 112.58 420.005 111.874 418.048 112.128C418.048 112.128 420.112 111.016 423.95 112.219L425.552 111.503C425.552 111.503 423.142 111.031 422.435 110.955C421.729 110.879 421.693 110.686 421.693 110.686C423.219 110.432 424.786 110.608 426.218 111.193C426.218 111.193 429.659 109.959 429.598 109.746Z" fill="#FF304F"/>
<path opacity="0.1" d="M190.351 137.741C190.351 137.741 181.932 120.305 171.215 128.899C171.215 128.899 168.902 129.671 169.014 132.093C169.014 132.093 169.903 131.631 170.539 133.5C170.776 134.161 171.09 134.792 171.474 135.379C171.994 136.176 172.76 136.782 173.655 137.106C173.655 137.106 178.266 140.753 187.056 138.264C187.056 138.264 189.512 138.686 189.914 138.391L187.107 136.223C187.107 136.223 185.582 138.341 183.457 138.528C183.457 138.528 187.097 136.38 186.706 135.882C186.624 135.781 185.18 134.8 185.18 134.8C185.18 134.8 182.532 138.473 179.227 138.66C179.227 138.66 183.904 136.68 184.626 134.42L182.339 133.069C182.339 133.069 179.731 137.091 175.974 137.447C175.974 137.447 180.793 135.207 181.815 132.81L179.385 131.794C179.385 131.794 176.767 135.664 173.635 135.943C173.635 135.943 178.943 132.789 178.81 131.596C178.81 131.596 176.518 130.793 175.806 130.869C175.806 130.869 173.864 133.607 172.034 133.607C172.034 133.607 175.353 131.123 175.15 130.722C175.15 130.722 171.886 130.468 170.168 131.23C171.716 130.461 173.439 130.111 175.165 130.214C174.48 129.398 173.572 128.8 172.552 128.492C172.552 128.492 174.372 127.802 175.953 130.285C175.953 130.285 178.495 130.585 178.795 130.874C178.795 130.874 177.58 128.203 176.029 127.04C176.029 127.04 178.378 127.512 179.451 131.103L181.917 132.078C181.917 132.078 180.498 128.462 179.192 127.319C179.192 127.319 181.51 128.178 182.522 132.398L184.779 133.698C184.779 133.698 183.798 130.483 182.618 128.904C182.618 128.904 184.596 130.163 185.414 134.094L186.823 135.141C186.823 135.141 186.06 132.81 185.806 132.159C185.552 131.509 185.679 131.377 185.679 131.377C186.646 132.583 187.258 134.034 187.448 135.567C187.448 135.567 190.168 137.894 190.351 137.741Z" fill="#FF304F"/>
<path opacity="0.1" d="M385.46 85.1131C385.46 85.1131 377.046 67.677 366.324 76.2706C366.324 76.2706 364.016 77.0426 364.123 79.4653C364.123 79.4653 365.018 79.0082 365.648 80.8721C365.885 81.5356 366.201 82.1682 366.589 82.7564C367.107 83.5517 367.871 84.1563 368.765 84.4782C368.765 84.4782 373.381 88.1249 382.166 85.6413C382.166 85.6413 384.621 86.0578 385.028 85.7632L382.237 83.5894C382.237 83.5894 380.712 85.7124 378.592 85.9003C378.592 85.9003 382.227 83.7468 381.835 83.2491C381.754 83.1475 380.31 82.1673 380.31 82.1673C380.31 82.1673 377.666 85.8394 374.357 86.0273C374.357 86.0273 379.039 84.0465 379.761 81.7914L377.438 80.4506C377.438 80.4506 374.835 84.468 371.073 84.8286C371.073 84.8286 375.892 82.5837 376.919 80.1865L374.484 79.1707C374.484 79.1707 371.866 83.0459 368.739 83.3202C368.739 83.3202 374.042 80.1662 373.909 78.9777C373.909 78.9777 371.622 78.1701 370.91 78.2514C370.91 78.2514 368.968 80.9839 367.133 80.9839C367.133 80.9839 370.457 78.5003 370.254 78.099C370.254 78.099 366.99 77.8451 365.267 78.6069C366.815 77.8378 368.538 77.4876 370.264 77.5911C369.582 76.7749 368.675 76.1763 367.656 75.8694C367.656 75.8694 369.476 75.1786 371.057 77.6622C371.057 77.6622 373.599 77.967 373.899 78.2565C373.899 78.2565 372.684 75.5799 371.129 74.4168C371.129 74.4168 373.477 74.8942 374.55 78.5054L377.021 79.4805C377.021 79.4805 375.602 75.8592 374.296 74.7165C374.296 74.7165 376.614 75.5748 377.621 79.7954L379.883 81.0956C379.883 81.0956 378.897 77.8857 377.717 76.3011C377.717 76.3011 379.7 77.5607 380.513 81.4918L381.922 82.538C381.922 82.538 381.164 80.2068 380.905 79.5567C380.646 78.9066 380.778 78.7796 380.778 78.7796C381.742 79.9866 382.353 81.437 382.542 82.9697C382.542 82.9697 385.302 85.2756 385.46 85.1131Z" fill="#FF304F"/>
<path opacity="0.1" d="M412.349 171.359C412.349 171.359 403.935 153.918 393.198 162.511C393.198 162.511 390.89 163.283 390.996 165.706C390.996 165.706 391.891 165.249 392.521 167.113C392.757 167.776 393.071 168.409 393.457 168.997C393.975 169.792 394.739 170.397 395.633 170.719C395.633 170.719 400.249 174.371 409.039 171.882C409.039 171.882 411.489 172.303 411.896 172.004L409.09 169.835C409.09 169.835 407.565 171.958 405.44 172.146C405.44 172.146 409.075 169.993 408.683 169.495C408.602 169.393 407.158 168.413 407.158 168.413C407.158 168.413 404.514 172.085 401.205 172.278C401.205 172.278 405.887 170.292 406.609 168.037L404.316 166.686C404.316 166.686 401.713 170.709 397.951 171.064C397.951 171.064 402.771 168.819 403.798 166.422L401.362 165.406C401.362 165.406 398.744 169.276 395.618 169.556C395.618 169.556 400.925 166.402 400.793 165.208C400.793 165.208 398.5 164.401 397.788 164.482C397.788 164.482 395.846 167.214 394.011 167.214C394.011 167.214 397.336 164.731 397.133 164.329C397.133 164.329 393.869 164.076 392.145 164.837C393.696 164.069 395.42 163.719 397.148 163.822C396.465 163.004 395.556 162.405 394.535 162.1C394.535 162.1 396.355 161.404 397.936 163.893C397.936 163.893 400.478 164.192 400.778 164.482C400.778 164.482 399.563 161.81 398.012 160.642C398.012 160.642 400.361 161.12 401.434 164.731L403.899 165.706C403.899 165.706 402.481 162.085 401.174 160.947C401.174 160.947 403.492 161.8 404.499 166.026L406.761 167.321C406.761 167.321 405.775 164.111 404.596 162.526C404.596 162.526 406.578 163.786 407.397 167.722L408.805 168.738C408.805 168.738 408.043 166.407 407.788 165.757C407.534 165.107 407.661 164.98 407.661 164.98C408.628 166.185 409.239 167.636 409.425 169.17C409.425 169.17 412.191 171.511 412.349 171.359Z" fill="#FF304F"/>
<path opacity="0.1" d="M102.669 398.271C109.124 398.271 114.357 397.687 114.357 396.966C114.357 396.245 109.124 395.66 102.669 395.66C96.214 395.66 90.9812 396.245 90.9812 396.966C90.9812 397.687 96.214 398.271 102.669 398.271Z" fill="#FF304F"/>
<path opacity="0.1" d="M26.0498 376.086C32.5048 376.086 37.7376 375.502 37.7376 374.781C37.7376 374.06 32.5048 373.476 26.0498 373.476C19.5948 373.476 14.3619 374.06 14.3619 374.781C14.3619 375.502 19.5948 376.086 26.0498 376.086Z" fill="#FF304F"/>
<path opacity="0.1" d="M161.073 413.005C167.528 413.005 172.761 412.421 172.761 411.7C172.761 410.979 167.528 410.395 161.073 410.395C154.618 410.395 149.385 410.979 149.385 411.7C149.385 412.421 154.618 413.005 161.073 413.005Z" fill="#FF304F"/>
<path opacity="0.1" d="M460.361 380.911C466.816 380.911 472.049 380.327 472.049 379.606C472.049 378.885 466.816 378.301 460.361 378.301C453.906 378.301 448.673 378.885 448.673 379.606C448.673 380.327 453.906 380.911 460.361 380.911Z" fill="#FF304F"/>
<path opacity="0.1" d="M363.101 374.578C369.556 374.578 374.789 373.993 374.789 373.272C374.789 372.552 369.556 371.967 363.101 371.967C356.646 371.967 351.413 372.552 351.413 373.272C351.413 373.993 356.646 374.578 363.101 374.578Z" fill="#FF304F"/>
<path opacity="0.1" d="M300.183 405.468C307.817 405.468 314.006 404.406 314.006 403.096C314.006 401.786 307.817 400.724 300.183 400.724C292.549 400.724 286.36 401.786 286.36 403.096C286.36 404.406 292.549 405.468 300.183 405.468Z" fill="#FF304F"/>
<path d="M306.35 379.255C306.35 379.255 287.102 389.19 297.046 400.892C297.046 400.892 297.982 403.431 300.686 403.254C300.686 403.254 300.147 402.268 302.211 401.481C302.946 401.197 303.644 400.827 304.291 400.379C305.165 399.775 305.818 398.903 306.151 397.895C306.151 397.895 310.086 392.633 307.036 382.897C307.036 382.897 307.433 380.144 307.087 379.697L304.748 382.902C304.748 382.902 307.163 384.522 307.443 386.904C307.443 386.904 304.901 382.907 304.392 383.349C304.281 383.441 303.233 385.101 303.233 385.101C303.233 385.101 307.422 387.94 307.733 391.628C307.733 391.628 305.374 386.462 302.827 385.726L301.367 388.326C301.367 388.326 305.943 391.11 306.451 395.295C306.451 395.295 303.792 389.987 301.078 388.916L300.005 391.663C300.005 391.663 304.418 394.467 304.825 397.951C304.825 397.951 301.134 392.126 299.807 392.308C299.807 392.308 298.973 394.888 299.085 395.686C299.085 395.686 302.201 397.768 302.257 399.815C302.257 399.815 299.38 396.184 298.937 396.422C298.937 396.422 298.754 400.074 299.639 401.974C299.639 401.974 298.114 399.261 298.363 396.422C297.471 397.21 296.83 398.241 296.517 399.388C296.517 399.388 295.689 397.382 298.419 395.533C298.419 395.533 298.678 392.694 298.993 392.344C298.993 392.344 296.04 393.786 294.784 395.554C294.784 395.554 295.247 392.918 299.253 391.607L300.269 388.824C300.269 388.824 296.263 390.521 295.028 392.014C295.028 392.014 295.918 389.398 300.585 388.144L301.967 385.604C301.967 385.604 298.409 386.803 296.67 388.144C296.67 388.144 298.017 385.894 302.394 384.858L303.518 383.258C303.518 383.258 300.935 384.177 300.213 384.507C299.492 384.837 299.349 384.675 299.349 384.675C300.669 383.56 302.272 382.832 303.981 382.572C303.981 382.572 306.528 379.428 306.35 379.255Z" fill="#FF304F"/>
<path d="M363.477 191.624C360.152 182.598 341.851 181.75 333.91 184.051C328.266 185.692 316.37 187.54 310.015 188.47L309.603 188.079C310.427 187.835 310.447 187.236 310.346 186.347C310.287 185.175 310.303 184.001 310.397 182.832C314.291 184.041 317.758 181.181 317.758 181.181C322.333 179.15 321.103 170.455 321.978 168.078C322.633 166.3 323.34 155.827 323.655 150.606H323.721L323.757 148.854C323.803 148.097 323.823 147.655 323.823 147.655C323.823 147.655 324.27 134.887 325.145 132.302C325.958 129.925 326.619 117.949 326.721 116.049C326.721 115.886 326.721 115.8 326.721 115.8L326.655 114.693C326.701 113.885 326.721 112.986 326.716 112.042C326.716 107.699 326.263 102.229 326.207 101.345C326.207 101.218 326.207 101.066 326.207 100.883C326.243 99.0294 326.009 89.7451 318.104 86.2355C315.191 84.9353 311.688 83.3862 308.297 81.8778C307.422 74.3355 305.424 66.8339 305.597 59.2358C305.597 58.0931 305.699 56.9503 305.811 55.8126C305.811 56.1427 305.775 56.478 305.77 56.8284C305.77 57.5648 305.77 58.3064 305.77 59.0428C306.07 49.5401 309.664 39.9866 309.329 30.687C309.298 31.5962 309.232 32.5104 309.146 33.4246C309.321 30.2791 308.992 27.1258 308.17 24.0844C307.865 23.0127 307.453 21.9055 306.573 21.1894C305.742 20.6126 304.789 20.2355 303.787 20.0873C301.382 19.4721 298.938 19.0174 296.472 18.7261C296.097 17.5802 295.541 16.5016 294.825 15.5315C289.67 8.46155 282.034 1.81828 273.005 0.294597C268.475 -0.467246 263.264 0.167623 260.183 3.40291C259.861 3.68713 259.559 3.99255 259.278 4.31713C257.621 6.29284 256.909 8.88818 255.211 10.8588C255.099 10.9909 254.972 11.1128 254.85 11.2397C251.525 14.2109 246.345 14.8306 242.649 17.497C241.997 17.9757 241.387 18.5074 240.824 19.0867C239.334 20.5611 237.999 22.1828 236.838 23.927C235.175 26.2633 233.467 28.6961 232.939 31.4844C231.876 37.0713 235.684 42.3686 236.39 47.991C237.966 60.5716 224.032 71.7351 226.67 84.1481C227.374 87.1976 228.929 89.9853 231.154 92.1881C225.719 97.1045 221.093 101.874 221.093 101.874V102.158H220.234L220.32 103.174H220.234L220.707 108.684L220.234 116.709C220.234 116.709 220.234 116.796 220.234 116.958V116.999V117.217C220.234 117.217 220.234 117.303 220.234 117.466H220.264C220.422 120.407 221.047 130.981 221.79 133.211C222.664 135.796 223.106 148.564 223.106 148.564C223.106 148.564 224.072 166.61 224.957 168.997C225.841 171.384 224.586 180.054 229.176 182.101C230.519 183.13 232.11 183.788 233.788 184.01C233.554 185.91 233.701 187.286 234.459 187.718C234.783 187.908 235.15 188.013 235.526 188.023C235.215 188.484 234.938 188.968 234.698 189.47C232.875 189.28 231.085 188.859 229.37 188.216C224.438 186.184 208.073 181.613 203.32 184.828C198.566 188.043 187.128 190.958 192.41 203.9C197.692 216.841 200.153 217.166 200.153 217.166C201.778 218.345 203.205 219.777 204.377 221.407C205.963 223.789 220.742 229.238 224.438 229.238C226.009 229.214 227.58 229.292 229.141 229.472C229.141 229.472 225.13 232.987 225.663 235.028C226.197 237.07 224.443 253.414 224.443 253.414C224.443 253.414 228.51 257.508 230.249 252.139L230.31 252.221C230.635 252.663 232.395 254.659 235.704 252.139C237.059 251.113 238.497 250.202 240.005 249.417L256.029 247.152C257.7 247.048 259.375 247.036 261.047 247.116C263.589 247.325 266.085 245.821 267.656 244.658C270.976 245.918 274.708 247.294 276.482 247.797C280.081 248.813 296.624 253.247 300.493 251.86C301.297 251.541 302.012 251.032 302.578 250.377L306.268 250.494L304.54 250.839C304.54 250.839 307.905 250.895 312.481 250.956L312.288 251.068L318.027 251.017C326.426 251.093 335.862 251.119 337.102 250.839C339.044 250.408 349.136 250.712 352.11 250.839H352.938C352.938 250.839 364.026 248.63 359.451 237.39C355.933 228.756 345.119 226.247 340.32 225.556C341.673 225.287 342.837 225.079 343.61 224.957C346.96 224.449 353.467 221.402 353.996 220.36C354.525 219.319 359.98 216.297 361.388 214.576C362.796 212.854 366.817 200.649 363.477 191.624ZM271.637 216.881L271.093 217.059L270.727 217.181L270.025 217.872C269.466 217.496 268.866 217.1 268.241 216.693C269.344 216.759 270.478 216.826 271.637 216.881Z" fill="url(#paint0_linear)"/>
<path d="M304.052 163.329C304.052 163.329 311.83 183.645 316.253 181.613C320.676 179.582 319.476 170.947 320.32 168.581C321.164 166.214 322.1 148.265 322.1 148.265C322.1 148.265 322.527 135.567 323.37 132.997C324.153 130.636 324.789 118.726 324.896 116.851C324.896 116.689 324.896 116.603 324.896 116.603L324.057 101.874L319.308 100.69L308.297 104.753L306.772 113.454L306.177 116.851L305.923 118.299L304.052 163.329Z" fill="#EEA892"/>
<path opacity="0.1" d="M306.614 159.926C306.614 159.926 314.036 165.995 316.273 166.529C318.51 167.062 319.883 171.796 319.883 171.796" fill="#28C7FA"/>
<path d="M243.223 164.218C243.223 164.218 235.445 184.534 231.022 182.502C226.599 180.47 227.799 171.836 226.955 169.469C226.111 167.103 225.175 149.154 225.175 149.154C225.175 149.154 224.748 136.456 223.904 133.886C223.121 131.525 222.486 119.614 222.379 117.74C222.379 117.578 222.379 117.491 222.379 117.491L223.223 102.762L227.971 101.579L238.983 105.642L240.508 114.342L241.103 117.74L241.357 119.188L243.223 164.218Z" fill="#EEA892"/>
<path d="M293.874 55.4977H276.512V82.5329H293.874V55.4977Z" fill="#3E373A"/>
<path opacity="0.1" d="M293.874 55.4977H276.512V82.5329H293.874V55.4977Z" fill="#28C7FA"/>
<path d="M240.173 184.452C240.173 184.452 234.24 190.969 236.441 192.152C238.643 193.335 252.882 215.515 252.882 215.515C252.882 215.515 299.654 221.27 308.475 212.635C317.295 204.001 317.117 188.576 317.117 188.576C317.117 188.576 310.03 190.1 309.258 189.272C308.485 188.444 304.24 184.452 304.24 184.452C304.24 184.452 244.24 180.816 240.173 184.452Z" fill="#4B4B5B"/>
<path opacity="0.02" d="M240.173 184.452C240.173 184.452 234.24 190.969 236.441 192.152C238.643 193.335 252.882 215.515 252.882 215.515C252.882 215.515 299.654 221.27 308.475 212.635C317.295 204.001 317.117 188.576 317.117 188.576C317.117 188.576 310.03 190.1 309.258 189.272C308.485 188.444 304.24 184.452 304.24 184.452C304.24 184.452 244.24 180.816 240.173 184.452Z" fill="#28C7FA"/>
<path d="M324.372 102.087L309.12 114.276L304.509 114.612L302.816 114.734L274.382 116.816L244.896 114.662L240.508 114.342L234.916 113.936L223.223 102.762C223.223 102.762 231.5 93.9047 238.749 87.9268C241.606 85.5651 244.306 83.6554 246.273 82.9037L246.609 82.7869C247.847 82.3048 248.951 81.5353 249.832 80.542C255.557 74.6453 260.849 60.0942 260.849 60.0942C260.849 60.0942 286.101 47.0616 283.05 64.1573C280 81.2531 294.403 77.0274 294.403 77.0274L299.151 79.191L301.027 80.0493L305.811 82.2384L316.604 87.1853C325.074 91.0808 324.372 102.087 324.372 102.087Z" fill="#EEA892"/>
<path opacity="0.1" d="M273.198 74.0155C285.74 74.0155 295.907 63.8579 295.907 51.3279C295.907 38.7978 285.74 28.6402 273.198 28.6402C260.656 28.6402 250.488 38.7978 250.488 51.3279C250.488 63.8579 260.656 74.0155 273.198 74.0155Z" fill="#28C7FA"/>
<path opacity="0.1" d="M324.408 118.248H222.379C222.379 118.086 222.379 117.999 222.379 117.999L223.223 103.27C223.223 103.27 231.5 94.4126 238.749 88.4347L302.806 85.8952L305.785 82.7564L316.578 87.7033C325.053 91.5938 324.372 102.6 324.372 102.6C324.372 102.6 325.531 115.353 324.408 118.248Z" fill="#28C7FA"/>
<path d="M324.408 117.74H222.379C222.379 117.578 222.379 117.491 222.379 117.491L223.223 102.762C223.223 102.762 231.5 93.9047 238.749 87.9268L302.806 85.3873L305.785 82.2485L316.578 87.1954C325.053 91.0859 324.372 102.092 324.372 102.092C324.372 102.092 325.531 114.845 324.408 117.74Z" fill="#E7C7CA"/>
<path opacity="0.1" d="M256.843 76.4382C256.843 76.4382 272.938 96.9267 294.377 76.0167C315.816 55.1066 296.751 122.657 296.751 122.657L250.488 128.142L256.843 76.4382Z" fill="#28C7FA"/>
<path d="M256.843 77.454C256.843 77.454 272.938 97.9425 294.377 77.0325C315.816 56.1224 296.751 123.672 296.751 123.672L250.488 129.158L256.843 77.454Z" fill="#E7C7CA"/>
<path opacity="0.1" d="M301.001 81.0499L302.705 106.998L304.53 115.632L305.923 122.235C305.923 122.235 309.481 173.025 308.465 175.564C307.448 178.104 308.973 180.135 309.186 181.486C309.4 182.837 308.973 186.23 309.141 187.754C309.308 189.277 309.141 189.953 305.246 189.409C301.352 188.866 295.923 187.921 295.923 187.921C295.923 187.921 282.196 188.937 277.453 187.246C272.71 185.554 263.726 185.549 263.726 185.549C263.726 185.549 250.168 185.89 245.765 185.382C241.362 184.874 238.983 190.801 236.106 189.105C233.228 187.408 239.492 170.993 241.525 166.249C243.559 161.506 238.815 149.489 238.815 149.489L244.916 115.678L246.273 108.014V83.9195L246.609 83.8027C247.846 83.3206 248.951 82.5511 249.832 81.5578L251.357 105.805L299.146 107.501V80.2119" fill="#28C7FA"/>
<path d="M301.001 80.0341L302.705 105.982L304.53 114.617L305.923 121.219C305.923 121.219 309.481 172.009 308.465 174.548C307.448 177.088 308.973 179.119 309.186 180.47C309.4 181.821 308.973 185.214 309.141 186.738C309.308 188.262 309.141 188.937 305.246 188.394C301.352 187.85 295.923 186.905 295.923 186.905C295.923 186.905 282.196 187.921 277.453 186.23C272.71 184.539 263.726 184.534 263.726 184.534C263.726 184.534 250.168 184.874 245.765 184.366C241.362 183.858 238.983 189.785 236.106 188.089C233.228 186.392 239.492 169.977 241.525 165.234C243.559 160.49 238.815 148.473 238.815 148.473L244.916 114.662L246.273 106.998V82.9037L246.609 82.7869C247.846 82.3048 248.951 81.5353 249.832 80.542L251.357 104.789L299.146 106.485V79.1961" fill="#E7C7CA"/>
<path opacity="0.1" d="M306.497 25.8823C306.207 24.8208 305.806 23.7187 304.972 23.0077C304.176 22.4365 303.256 22.0607 302.288 21.9106C299.969 21.3014 297.611 20.8501 295.231 20.5596C294.891 19.4318 294.377 18.3642 293.706 17.3954C288.724 10.3662 281.352 3.73812 272.679 2.23983C268.139 1.45259 262.877 2.15857 259.969 5.73415C258.373 7.6997 257.687 10.3052 256.075 12.2352C252.969 15.9835 247.361 16.4457 243.447 19.3457C241.357 20.8694 239.842 23.0788 238.363 25.2221C236.761 27.5432 235.114 29.9607 234.606 32.7339C233.589 38.275 237.255 43.5571 237.931 49.149C239.456 61.6585 226.034 72.756 228.571 85.0978C230.051 92.2947 236.706 97.3635 243.589 99.9335C246.014 100.843 248.785 101.747 249.919 104.073C250.427 105.089 250.513 106.262 250.991 107.288C252.598 110.711 257.88 110.843 260.717 108.349C263.554 105.856 264.448 101.823 264.784 98.0593C266.146 81.6238 259.558 65.3864 260.325 48.9103C260.554 43.9279 261.957 38.275 266.426 36.0199C272.44 32.9726 279.675 38.0515 286.294 37.0814C289.426 44.6955 290.091 53.0988 288.195 61.11C287.143 65.4931 285.323 69.7442 285.191 74.2644C284.992 81.1464 288.709 87.4342 291.922 93.5187C292.611 94.6565 293.072 95.9176 293.279 97.2315C293.33 98.5645 293.081 99.892 292.552 101.117C290.737 105.998 287.605 110.528 287.25 115.724C287.145 116.33 287.282 116.954 287.631 117.461C287.989 117.799 288.451 118.007 288.942 118.05C294.433 118.99 299.181 114.129 301.861 109.248C304.848 103.857 306.588 97.8666 306.955 91.7157C307.509 81.375 303.798 71.2018 304.026 60.8509C304.291 49.083 309.614 37.2338 306.497 25.8823Z" fill="#28C7FA"/>
<path d="M307.006 25.3744C306.716 24.3129 306.314 23.2108 305.48 22.4998C304.684 21.9286 303.765 21.5528 302.796 21.4027C300.477 20.7935 298.12 20.3422 295.74 20.0517C295.4 18.9239 294.885 17.8563 294.215 16.8875C289.232 9.85825 281.861 3.23022 273.188 1.73193C268.648 0.94469 263.386 1.65066 260.478 5.22624C258.882 7.1918 258.195 9.7973 256.584 11.7273C253.477 15.4756 247.87 15.9378 243.955 18.8378C241.866 20.3615 240.351 22.5709 238.871 24.7142C237.27 27.0353 235.623 29.4528 235.114 32.226C234.098 37.7671 237.763 43.0492 238.439 48.6411C239.964 61.1506 226.543 72.2481 229.08 84.5899C230.559 91.7868 237.214 96.8556 244.098 99.4256C246.523 100.335 249.293 101.239 250.427 103.565C250.935 104.581 251.022 105.754 251.5 106.78C253.106 110.203 258.388 110.335 261.225 107.841C264.062 105.348 264.957 101.315 265.292 97.5514C266.655 81.1159 260.066 64.8785 260.834 48.4024C261.063 43.42 262.466 37.7671 266.934 35.512C272.949 32.4647 280.183 37.5436 286.802 36.5735C289.935 44.1876 290.6 52.5909 288.704 60.6021C287.651 64.9852 285.831 69.2363 285.699 73.7565C285.501 80.6385 289.217 86.9263 292.43 93.0108C293.12 94.1486 293.581 95.4097 293.788 96.7235C293.838 98.0566 293.59 99.3841 293.061 100.609C291.246 105.49 288.114 110.02 287.758 115.216C287.654 115.823 287.791 116.446 288.139 116.953C288.498 117.292 288.96 117.499 289.451 117.542C294.942 118.482 299.69 113.621 302.369 108.74C305.356 103.349 307.097 97.3587 307.463 91.2078C308.017 80.8671 304.306 70.6939 304.535 60.343C304.799 48.5751 310.122 36.7259 307.006 25.3744Z" fill="#3E373A"/>
<path d="M295.775 250.255L315.943 250.9L313.05 235.958L297.601 237.426L295.775 250.255Z" fill="#C3C7D9"/>
<path d="M358.266 214.84C356.909 216.531 351.657 219.578 351.149 220.594C350.641 221.61 344.372 224.657 341.149 225.165C337.926 225.673 327.763 227.877 325.897 229.061C324.56 229.914 313.828 232.616 306.777 234.114C304.867 234.566 302.934 234.913 300.986 235.155C297.936 235.323 264.555 223.982 264.555 223.982L270.991 217.379L271.347 217.257C273.167 216.643 281.576 213.804 286.243 212.453C291.5 210.929 297.6 204.667 297.6 204.667C297.6 204.667 306.579 201.619 307.768 201.279C308.958 200.939 304.718 189.43 304.718 189.43C304.718 189.43 324.204 186.728 331.83 184.437C339.456 182.146 357.082 182.995 360.3 191.969C363.518 200.944 359.644 213.148 358.266 214.84Z" fill="#4B4B5B"/>
<path d="M269.466 243.449C269.466 243.449 265.572 247.513 261.673 247.177C257.773 246.842 244.138 248.193 244.138 248.193C241.667 249.178 239.353 250.518 237.27 252.17C234.082 254.679 232.389 252.678 232.074 252.251L232.018 252.17C230.32 257.508 226.426 253.44 226.426 253.44C226.426 253.44 228.119 237.187 227.6 235.155C227.082 233.124 230.951 229.635 230.951 229.635L235.526 228.472L247.117 225.505L263.726 231.26L269.466 243.449Z" fill="#E7C7CA"/>
<path opacity="0.1" d="M235.506 228.472L232.074 252.251L232.018 252.17C230.32 257.508 226.426 253.44 226.426 253.44C226.426 253.44 228.119 237.187 227.6 235.155C227.082 233.124 230.951 229.635 230.951 229.635L235.506 228.472Z" fill="#28C7FA"/>
<path opacity="0.1" d="M259.492 160.83C259.492 160.83 268.47 163.877 276.268 160.83H259.492Z" fill="#28C7FA"/>
<path opacity="0.1" d="M290.142 166.59C290.142 166.59 293.869 168.449 296.751 166.59H290.142Z" fill="#28C7FA"/>
<path opacity="0.1" d="M290.142 170.998C290.142 170.998 296.411 171.836 297.6 170.145L290.142 170.998Z" fill="#28C7FA"/>
<path opacity="0.1" d="M288.109 180.47C288.109 180.47 299.883 178.947 302.806 176.915L288.109 180.47Z" fill="#28C7FA"/>
<path opacity="0.1" d="M252.181 176.915C252.181 176.915 258.79 180.638 263.706 180.47L252.181 176.915Z" fill="#28C7FA"/>
<path opacity="0.1" d="M306.772 234.114C304.862 234.566 302.929 234.913 300.981 235.155C297.931 235.323 264.55 223.982 264.55 223.982L270.986 217.379L271.342 217.257C272.359 217.973 273.193 218.588 273.787 219.055C276.589 221.259 279.293 218.38 280.31 218.38C281.327 218.38 290.137 225.658 290.137 225.658C290.137 225.658 298.271 227.522 299.629 229.213C300.986 230.904 305.73 230.569 306.573 231.753C306.828 232.118 306.858 233.017 306.772 234.114Z" fill="#28C7FA"/>
<path d="M244.138 190.12C244.138 190.12 235.913 190.593 231.169 188.597C226.426 186.601 210.666 181.994 206.09 185.229C201.515 188.465 190.498 191.324 195.582 204.194C200.666 217.064 203.04 217.399 203.04 217.399C204.613 218.578 205.986 220.001 207.107 221.615C208.632 223.987 222.867 229.401 226.426 229.401C229.985 229.401 236.253 229.401 245.064 235.496C253.874 241.59 261.84 242.271 261.84 242.271C261.84 242.271 273.025 246.842 276.507 247.858C279.99 248.874 295.902 253.272 299.634 251.921C303.366 250.57 305.735 242.098 305.735 242.098C305.735 242.098 307.428 234.48 306.579 233.297C305.73 232.113 300.986 232.448 299.634 230.757C298.282 229.066 290.142 227.202 290.142 227.202C290.142 227.202 281.352 219.919 280.336 219.919C279.319 219.919 276.614 222.793 273.813 220.594C268.233 216.465 262.37 212.731 256.268 209.42C249.832 206.033 244.138 190.12 244.138 190.12Z" fill="#4B4B5B"/>
<path opacity="0.1" d="M227.6 195.032C229.065 194.733 230.579 194.776 232.024 195.157C233.469 195.539 234.807 196.248 235.933 197.231C240 200.619 253.686 207.419 253.686 207.419" fill="#28C7FA"/>
<path opacity="0.1" d="M329.288 194.818C329.288 194.818 311.154 197.561 307.768 201.284L329.288 194.818Z" fill="#28C7FA"/>
<path d="M350.132 250.9H349.334C346.467 250.799 336.752 250.494 334.881 250.9C332.679 251.408 303.528 250.9 303.528 250.9L309.227 249.717C309.227 249.717 307.112 242.312 308.455 241.697C308.455 241.697 300.829 236.679 306.579 233.291C312.329 229.904 318.526 231.331 318.526 231.331L332.959 226.445L335.73 225.505C335.73 225.505 351.998 226.354 356.401 237.527C360.803 248.701 350.132 250.9 350.132 250.9Z" fill="#E7C7CA"/>
<path opacity="0.1" d="M350.132 250.9H349.334C354.067 247 364.774 235.125 332.959 226.47L335.729 225.531C335.729 225.531 351.998 226.379 356.401 237.553C360.803 248.726 350.132 250.9 350.132 250.9Z" fill="#28C7FA"/>
<path d="M320.224 237.736C320.715 237.736 321.113 237.338 321.113 236.847C321.113 236.356 320.715 235.958 320.224 235.958C319.732 235.958 319.334 236.356 319.334 236.847C319.334 237.338 319.732 237.736 320.224 237.736Z" fill="#4B4B5B"/>
<path d="M315.053 239.203C315.545 239.203 315.943 238.805 315.943 238.315C315.943 237.824 315.545 237.426 315.053 237.426C314.562 237.426 314.164 237.824 314.164 238.315C314.164 238.805 314.562 239.203 315.053 239.203Z" fill="#4B4B5B"/>
<g opacity="0.1">
<path opacity="0.1" d="M289.863 50.4899C290.06 44.9034 289.065 39.339 286.945 34.1661C280.336 35.1514 273.096 30.0573 267.077 33.1046C262.623 35.3597 261.225 41.0126 260.976 45.995C260.915 47.3105 260.905 48.6259 260.93 49.9414C260.93 49.4741 260.93 49.0017 260.976 48.5345C261.21 43.552 262.608 37.8992 267.077 35.6441C273.096 32.5967 280.326 37.6757 286.945 36.7056C288.741 41.0872 289.729 45.757 289.863 50.4899Z" fill="#28C7FA"/>
<path opacity="0.1" d="M238.648 49.5604C238.735 48.4537 238.713 47.3412 238.582 46.2388C238.043 41.7693 235.597 37.4979 235.155 33.1402C234.586 38.3969 237.936 43.4454 238.582 48.7783C238.648 49.0525 238.648 49.2963 238.648 49.5604Z" fill="#28C7FA"/>
<path opacity="0.1" d="M265.435 95.1389C265.12 98.9075 264.23 102.935 261.368 105.434C258.505 107.933 253.233 107.796 251.642 104.372C251.134 103.357 251.058 102.173 250.564 101.157C249.436 98.8313 246.66 97.9273 244.235 97.0181C237.346 94.4431 230.702 89.3997 229.222 82.1825C229.09 81.5287 229 80.8671 228.953 80.2017C228.828 81.7136 228.919 83.2356 229.222 84.722C230.702 91.9189 237.357 96.9826 244.235 99.5576C246.66 100.467 249.436 101.371 250.564 103.697C251.073 104.713 251.159 105.886 251.642 106.912C253.244 110.335 258.526 110.467 261.368 107.973C264.21 105.48 265.094 101.447 265.435 97.6784C265.59 95.6948 265.642 93.7047 265.592 91.7157C265.592 92.8686 265.526 94.0063 265.435 95.1389Z" fill="#28C7FA"/>
<path opacity="0.1" d="M304.703 57.9356C304.703 58.6721 304.703 59.4034 304.703 60.1348C304.987 50.6879 308.455 41.1903 308.114 31.9415C307.85 40.4945 304.896 49.2404 304.703 57.9356Z" fill="#28C7FA"/>
<path opacity="0.1" d="M293.793 96.1496C293.918 95.547 293.957 94.9297 293.909 94.3161C293.705 93.0017 293.244 91.7403 292.552 90.6034C289.614 85.0166 286.263 79.2977 285.867 73.0963C285.867 73.3604 285.831 73.6042 285.826 73.8886C285.623 80.7655 289.339 87.0583 292.552 93.1429C293.098 94.0853 293.515 95.0965 293.793 96.1496Z" fill="#28C7FA"/>
<path opacity="0.1" d="M307.626 88.8004C307.247 94.9536 305.494 100.944 302.496 106.333C299.812 111.214 295.069 116.074 289.573 115.135C289.081 115.092 288.618 114.883 288.262 114.54C288.158 114.424 288.077 114.29 288.023 114.144C287.962 114.54 287.911 114.942 287.88 115.348C287.775 115.953 287.912 116.575 288.262 117.08C288.618 117.422 289.081 117.632 289.573 117.674C295.069 118.614 299.812 113.753 302.496 108.872C305.494 103.484 307.247 97.4931 307.626 91.3398C307.687 90.1514 307.692 88.968 307.657 87.7846C307.646 88.1249 307.646 88.4601 307.626 88.8004Z" fill="#28C7FA"/>
</g>
<path opacity="0.1" d="M308.455 241.697C308.455 241.697 321.322 247.091 329.807 235.155" stroke="#28C7FA" stroke-miterlimit="10"/>
<path opacity="0.1" d="M310.986 251.124C310.986 251.124 321.495 244.298 334.881 250.9" stroke="#28C7FA" stroke-miterlimit="10"/>
<path opacity="0.1" d="M240.646 249.575C240.646 249.575 245.059 239.63 256.843 247.213" stroke="#28C7FA" stroke-miterlimit="10"/>
<path opacity="0.1" d="M226.34 102.508L235.338 94.3821C235.338 94.3821 270.229 92.0966 271.673 103.946C271.673 103.946 284.042 89.8974 310.056 93.0261L321.062 101.782L290.641 115.119L261.078 125.364L239.303 115.627L226.34 102.508Z" fill="#28C7FA"/>
<path d="M226.34 103.016L235.338 94.8901C235.338 94.8901 270.229 92.6045 271.673 104.454C271.673 104.454 284.042 90.4053 310.056 93.534L321.062 102.29L290.641 115.627L261.078 125.872L239.303 116.135L226.34 103.016Z" fill="#D5D6DB"/>
<path opacity="0.1" d="M222.359 104.032L226.34 151.607L268.536 153.725L266.706 106.353L266.67 105.556L222.359 104.032Z" fill="#28C7FA"/>
<path d="M222.359 103.016L226.34 150.591L268.536 152.709L266.706 105.337L266.67 104.54L222.359 103.016Z" fill="#FF304F"/>
<path opacity="0.1" d="M322.995 103.016L279.466 109.538V157.326L322.003 151.185L322.995 103.016Z" fill="#28C7FA"/>
<path d="M322.995 102.001L279.466 108.522V156.31L322.003 150.169L322.995 102.001Z" fill="#FF304F"/>
<path opacity="0.3" d="M312.73 113.662L289.217 116.272L289.731 124.277L312.715 121.768L312.73 113.662Z" fill="white"/>
<path d="M228.627 176.067L231.022 182.502C231.022 182.502 234.58 185.549 238.475 184.026C242.369 182.502 245.765 181.745 247.458 180.262C249.151 178.779 251.525 171.328 251.525 171.328C251.525 171.328 253.899 163.202 256.268 161.17C258.637 159.139 264.911 131.149 256.268 133.886C247.626 136.624 241.017 162.019 241.017 162.019C241.017 162.019 239.491 163.877 237.29 164.05C235.089 164.223 230.681 163.71 229.832 165.574C228.983 167.438 226.085 172.344 228.627 176.067Z" fill="#EEA892"/>
<path opacity="0.1" d="M279.466 109.533C277.237 110.034 274.922 110.008 272.706 109.456C270.489 108.904 268.432 107.841 266.7 106.353L268.536 153.72C268.536 153.72 272.857 158.392 279.466 157.326V109.533Z" fill="#28C7FA"/>
<path d="M279.466 108.517C277.237 109.019 274.922 108.992 272.706 108.44C270.489 107.888 268.432 106.826 266.7 105.337L268.536 152.704C268.536 152.704 272.857 157.376 279.466 156.31V108.517Z" fill="#FF304F"/>
<path opacity="0.1" d="M279.466 108.517C277.237 109.019 274.922 108.992 272.706 108.44C270.489 107.888 268.432 106.826 266.7 105.337L268.536 152.704C268.536 152.704 272.857 157.376 279.466 156.31V108.517Z" fill="#28C7FA"/>
<path opacity="0.1" d="M280.483 103.179C280.483 103.179 298.19 97.7698 302.806 98.5317L280.483 103.179Z" fill="#28C7FA"/>
<path opacity="0.1" d="M260.676 100.817C260.676 100.817 243.513 96.754 240.646 97.907L260.676 100.817Z" fill="#28C7FA"/>
<path opacity="0.1" d="M291.647 103.854C291.647 103.854 303.488 99.517 307.768 101.579L291.647 103.854Z" fill="#28C7FA"/>
<path opacity="0.1" d="M285.684 212.661C287.519 211.284 289.472 210.072 291.52 209.039C294.57 207.572 300.163 203.762 300.163 203.762" fill="#28C7FA"/>
<path opacity="0.1" d="M240.646 160.83C240.646 160.83 233.218 166.899 230.986 167.433C228.754 167.966 227.377 172.7 227.377 172.7" fill="#28C7FA"/>
<path d="M318.627 175.163L316.258 181.613C316.258 181.613 312.7 184.661 308.8 183.137C304.901 181.613 301.515 180.856 299.817 179.373C298.119 177.89 295.75 170.439 295.75 170.439C295.75 170.439 293.381 162.313 291.007 160.282C288.632 158.25 282.364 130.26 291.007 132.997C299.649 135.735 306.258 161.13 306.258 161.13C306.258 161.13 307.783 162.989 309.985 163.161C312.186 163.334 316.594 162.821 317.443 164.685C318.292 166.549 321.169 171.455 318.627 175.163Z" fill="#EEA892"/>
<path opacity="0.1" d="M314.474 163.298C314.474 163.298 319.329 166.417 319.309 170.145L314.474 163.298Z" fill="#28C7FA"/>
<path d="M273.279 72.9033C285.821 72.9033 295.989 62.7457 295.989 50.2156C295.989 37.6855 285.821 27.5279 273.279 27.5279C260.737 27.5279 250.569 37.6855 250.569 50.2156C250.569 62.7457 260.737 72.9033 273.279 72.9033Z" fill="#EEA892"/>
<path d="M259.019 44.1259C261.774 43.6942 264.189 42.0944 266.822 41.1751C272.715 39.1079 279.232 40.525 285.196 42.3889C287.483 43.1051 289.807 43.9126 292.206 43.9126C294.606 43.9126 297.153 42.9324 298.378 40.8652C299.507 38.9657 299.288 36.4974 298.337 34.5013C297.387 32.5053 295.796 30.9003 294.189 29.3868C288.902 24.3993 282.344 19.7368 275.089 20.2447C272.171 20.4529 269.38 21.4941 266.695 22.6471C263.315 24.1022 260.025 25.7575 256.843 27.6041C254.397 29.0211 249.868 30.9156 248.459 33.5059C245.257 39.3416 254.037 44.9081 259.019 44.1259Z" fill="#3E373A"/>
<path opacity="0.1" d="M298.378 38.7321C297.153 40.7992 294.606 41.7794 292.206 41.7794C289.807 41.7794 287.483 41.0024 285.191 40.2862C279.227 38.4222 272.715 37.0001 266.817 39.0724C264.189 39.9916 261.769 41.6118 259.014 42.0181C254.997 42.6479 248.531 39.1536 247.829 34.7095C247.041 39.8444 254.54 44.2427 259.014 43.5418C261.769 43.1101 264.189 41.5102 266.817 40.596C272.715 38.5238 279.227 39.9459 285.191 41.8099C287.483 42.526 289.802 43.3336 292.206 43.3031C294.611 43.2726 297.153 42.328 298.378 40.2557C299.013 39.1284 299.263 37.825 299.09 36.543C299.011 37.3149 298.768 38.061 298.378 38.7321Z" fill="#28C7FA"/>
<path d="M482.674 313.986C482.674 313.986 485.689 317.922 481.281 323.87C476.873 329.817 473.244 334.835 474.708 338.543C474.708 338.543 481.357 327.501 486.767 327.343C492.176 327.186 488.617 320.624 482.674 313.986Z" fill="#FF304F"/>
<path opacity="0.1" d="M482.674 313.986C482.937 314.366 483.144 314.782 483.289 315.22C488.566 321.416 491.383 327.201 486.304 327.343C481.576 327.481 475.907 335.927 474.55 338.055C474.593 338.227 474.646 338.397 474.708 338.563C474.708 338.563 481.357 327.521 486.767 327.364C492.176 327.206 488.617 320.624 482.674 313.986Z" fill="#28C7FA"/>
<path d="M488.266 319.004C488.266 320.39 488.109 321.513 487.921 321.513C487.732 321.513 487.57 320.39 487.57 319.004C487.57 317.617 487.763 318.273 487.956 318.273C488.149 318.273 488.266 317.617 488.266 319.004Z" fill="#FFD037"/>
<path d="M490.193 320.66C488.978 321.32 487.916 321.721 487.824 321.554C487.733 321.386 488.643 320.71 489.858 320.03C491.073 319.349 490.595 319.847 490.686 320.03C490.778 320.213 491.413 319.994 490.193 320.66Z" fill="#FFD037"/>
<path d="M466.741 313.986C466.741 313.986 463.726 317.922 468.134 323.87C472.542 329.817 476.172 334.835 474.703 338.543C474.703 338.543 468.058 327.501 462.643 327.343C457.229 327.186 460.813 320.624 466.741 313.986Z" fill="#FF304F"/>
<path opacity="0.1" d="M466.741 313.986C466.479 314.366 466.271 314.782 466.126 315.22C460.849 321.416 458.032 327.201 463.111 327.343C467.834 327.481 473.508 335.927 474.865 338.055C474.823 338.228 474.768 338.397 474.702 338.563C474.702 338.563 468.058 327.521 462.643 327.364C457.229 327.206 460.813 320.624 466.741 313.986Z" fill="#28C7FA"/>
<path d="M461.139 319.004C461.139 320.39 461.291 321.513 461.484 321.513C461.678 321.513 461.835 320.39 461.835 319.004C461.835 317.617 461.637 318.273 461.449 318.273C461.261 318.273 461.139 317.617 461.139 319.004Z" fill="#FFD037"/>
<path d="M459.217 320.66C460.432 321.32 461.495 321.721 461.586 321.554C461.678 321.386 460.768 320.71 459.553 320.03C458.338 319.349 458.816 319.847 458.724 320.03C458.632 320.213 457.997 319.994 459.217 320.66Z" fill="#FFD037"/>
<path opacity="0.1" d="M474.708 368.671C492.116 368.671 506.228 366.508 506.228 363.841C506.228 361.173 492.116 359.011 474.708 359.011C457.3 359.011 443.188 361.173 443.188 363.841C443.188 366.508 457.3 368.671 474.708 368.671Z" fill="#FF304F"/>
<path d="M490.93 333.235L490.778 334.464L490.564 336.201L490.478 336.927L490.264 338.664L490.173 339.391L489.964 341.123L487.549 360.88C487.336 362.642 484.453 364.019 480.971 364.019H468.439C464.957 364.019 462.079 362.642 461.861 360.88L459.446 341.123L459.232 339.391L459.146 338.664L458.932 336.927L458.841 336.201L458.632 334.464L458.48 333.235C458.363 332.219 459.919 331.396 461.891 331.396H487.524C489.492 331.396 491.052 332.235 490.93 333.235Z" fill="#28C7FA"/>
<path d="M490.778 334.464L490.569 336.201H458.846L458.632 334.464H490.778Z" fill="#28C7FA"/>
<path d="M490.478 336.927L490.269 338.664H459.146L458.932 336.927H490.478Z" fill="#28C7FA"/>
<path d="M490.178 339.391L489.964 341.128H459.446L459.237 339.391H490.178Z" fill="#28C7FA"/>
</g>
<defs>
<linearGradient id="paint0_linear" x1="277.905" y1="254.923" x2="277.905" y2="1.61811e-05" gradientUnits="userSpaceOnUse">
<stop stop-color="#808080" stop-opacity="0.25"/>
<stop offset="0.54" stop-color="#808080" stop-opacity="0.12"/>
<stop offset="1" stop-color="#808080" stop-opacity="0.1"/>
</linearGradient>
<clipPath id="clip0">
<rect width="520" height="413" fill="white"/>
</clipPath>
</defs>
</svg>
